SplineFontDB: 3.0
FontName: Nika-Regular
FullName: Nika Regular
FamilyName: Nika
Weight: Regular
Copyright: Copyright (c) 2016 Copyright Holder (info@font-store.ir), with Reserved Font Name "Nika"
UComments: "2015-5-13: Created with FontForge (http://fontforge.org)"
Version: Version:0.0.5;RFB:1.2.5;Building:2016-03-24 16:16:02.462969
FONDName: RITA
ItalicAngle: 0
UnderlinePosition: 500
UnderlineWidth: 59
Ascent: 800
Descent: 500
InvalidEm: 0
sfntRevision: 0x00010000
LayerCount: 2
Layer: 0 0 "Back" 1
Layer: 1 0 "Fore" 0
PreferredKerning: 4
XUID: [1021 828 -1901974348 32649]
StyleMap: 0x0040
FSType: 0
OS2Version: 0
OS2_WeightWidthSlopeOnly: 0
OS2_UseTypoMetrics: 0
CreationTime: 1431477301
ModificationTime: 1458833935
PfmFamily: 33
TTFWeight: 400
TTFWidth: 5
LineGap: 0
VLineGap: 0
Panose: 2 0 5 3 0 0 0 0 0 0
OS2TypoAscent: 800
OS2TypoAOffset: 0
OS2TypoDescent: -500
OS2TypoDOffset: 0
OS2TypoLinegap: 0
OS2WinAscent: 1100
OS2WinAOffset: 0
OS2WinDescent: 700
OS2WinDOffset: 0
HheadAscent: 1100
HheadAOffset: 0
HheadDescent: -700
HheadDOffset: 0
OS2SubXSize: 780
OS2SubYSize: 839
OS2SubXOff: -107
OS2SubYOff: 168
OS2SupXSize: 780
OS2SupYSize: 839
OS2SupXOff: 369
OS2SupYOff: 575
OS2StrikeYSize: 59
OS2StrikeYPos: 310
OS2Vendor: 'RITA'
OS2CodePages: 00000040.00000000
OS2UnicodeRanges: 80002003.80002000.00000008.00000000
MacStyle: 0
Lookup: 4 1 1 "'ccmp' Glyph Composition/Decomposition in Arabic lookup 5" { "'ccmp' Glyph Composition/Decomposition in Arabic lookup 5-1"  } ['ccmp' ('DFLT' <'dflt' > 'arab' <'dflt' > ) ]
Lookup: 1 9 0 "'isol' Isolated Forms in Latin lookup 1" { "'isol' Isolated Forms in Latin lookup 1-1"  } ['isol' ('DFLT' <'dflt' > 'arab' <'dflt' > ) ]
Lookup: 1 9 0 "'fina' Terminal Forms in Arabic lookup 3" { "'fina' Terminal Forms in Arabic lookup 3-1"  } ['fina' ('DFLT' <'dflt' > 'arab' <'dflt' > ) ]
Lookup: 1 9 0 "'medi' Medial Forms in Arabic lookup 2" { "'medi' Medial Forms in Arabic lookup 2-1"  } ['medi' ('DFLT' <'dflt' > 'arab' <'dflt' > ) ]

StartChar: _.alef.isol
Encoding: 65536 -1 0
GlifName: _.alef.isol
Width: 217
VWidth: 1304
GlyphClass: 2
Flags: HMW
LayerCount: 2
Fore
SplineSet
64 718 m 0
 64 752 72 762 141 800 c 0
 148 800 153 798 153 789 c 2
 153 -0 l 1
 136 -13 115 -25 102 -25 c 0
 94 -25 89 -21 89 -10 c 2
 64 700 l 2
 64 707 64 713 64 718 c 0
EndSplineSet
Colour: ffda6b
EndChar

StartChar: _.alef.fina
Encoding: 65537 -1 1
GlifName: _.alef.fina
Width: 307
VWidth: 1304
GlyphClass: 2
Flags: HMW
LayerCount: 2
Fore
SplineSet
64 718 m 0
 64 752 72 762 141 800 c 0
 148 800 153 798 153 789 c 2
 153 160 l 2
 153 142 159 125 185 119 c 0
 217 109 258 100 307 100 c 1
 307 -0 l 1
 239 0 195 10 163 27 c 0
 140 38 121 51 107 68 c 0
 81 98 81 149 79 191 c 1
 64 700 l 2
 64 707 64 713 64 718 c 0
EndSplineSet
Colour: ffda6b
EndChar

StartChar: _.beh.isol
Encoding: 65540 -1 4
GlifName: _.beh.isol
Width: 930
VWidth: 1304
GlyphClass: 2
UnlinkRmOvrlpSave: 1
Flags: HMW
LayerCount: 2
Fore
SplineSet
64 217 m 0
 64 267 76 327 102 400 c 0
 104 406 113 409 118 407 c 2
 153 393 l 2
 158 391 163 384 159 373 c 0
 142 328 135 289 135 256 c 0
 135 138 238 100 369 100 c 0
 371 100 372 100 374 100 c 0
 540 100 683 134 791 172 c 1
 791 175 791 178 791 181 c 0
 791 230 765 319 752 364 c 0
 747 379 754 386 759 391 c 2
 807 432 l 2
 819 442 827 432 829 425 c 0
 851 354 866 287 866 229 c 0
 866 219 866 209 865 200 c 0
 860 152 842 99 753 65 c 1
 647 31 546 -1 358 -1 c 0
 199 -1 64 47 64 217 c 0
EndSplineSet
Colour: ffda6b
EndChar

StartChar: _.beh.fina
Encoding: 65541 -1 5
GlifName: _.beh.fina
Width: 1025
VWidth: 1304
GlyphClass: 2
UnlinkRmOvrlpSave: 1
Flags: HMW
LayerCount: 2
Fore
SplineSet
64 217 m 0
 64 267 76 327 102 400 c 0
 104 406 113 409 118 407 c 2
 153 393 l 2
 158 391 163 384 159 373 c 0
 142 328 135 289 135 256 c 0
 135 138 238 100 369 100 c 0
 371 100 372 100 374 100 c 0
 539 100 680 134 788 171 c 1
 765 289 l 2
 764 296 770 308 777 309 c 2
 824 317 l 2
 831 318 843 314 844 305 c 2
 859 229 l 2
 873 156 871 133 935 111 c 0
 961 105 991 100 1025 100 c 1
 1025 -0 l 1
 936 0 855 24 814 92 c 1
 793 81 773 72 753 65 c 0
 647 31 546 -1 358 -1 c 0
 199 -1 64 47 64 217 c 0
EndSplineSet
Colour: ffda6b
EndChar

StartChar: _.beh.medi
Encoding: 65542 -1 6
GlifName: _.beh.medi
Width: 418
VWidth: 1304
GlyphClass: 2
UnlinkRmOvrlpSave: 1
Flags: HMW
LayerCount: 2
Fore
SplineSet
-50 49 m 0
 -50 76 -27 100 -1 100 c 2
 24 100 l 2
 79 100 135 109 184 135 c 1
 184 290 l 2
 184 304 194 308 204 310 c 2
 244 320 l 2
 256 324 264 315 264 300 c 2
 264 160 l 2
 264 142 270 125 296 119 c 0
 328 109 369 100 418 100 c 1
 418 -0 l 1
 350 0 306 10 274 27 c 0
 249 38 230 53 216 70 c 1
 174 24 106 0 25 -0 c 2
 -1 -0 l 2
 -25 0 -50 24 -50 49 c 0
EndSplineSet
Colour: ffda6b
EndChar

StartChar: _.beh.init
Encoding: 65543 -1 7
GlifName: _.beh.init
Width: 326
VWidth: 1197
GlyphClass: 1
UnlinkRmOvrlpSave: 1
Flags: HMW
LayerCount: 2
Fore
SplineSet
-50 49 m 0
 -50 76 -27 100 -1 100 c 0
 10 100 22 100 33 100 c 0
 102 100 150 118 186 136 c 1
 186 140 187 144 187 148 c 0
 187 199 161 285 147 329 c 0
 143 345 150 351 156 356 c 2
 202 396 l 2
 214 407 223 396 225 390 c 0
 248 320 262 253 262 195 c 0
 262 79 203 0 28 -0 c 2
 -1 -0 l 2
 -25 0 -50 24 -50 49 c 0
EndSplineSet
Colour: ffda6b
EndChar

StartChar: _.heh.isol
Encoding: 65544 -1 8
GlifName: _.heh.isol
Width: 784
VWidth: 1304
GlyphClass: 1
UnlinkRmOvrlpSave: 1
Flags: HMW
LayerCount: 2
Fore
SplineSet
408 276 m 1
 332 300 268 319 207 319 c 0
 171 319 146 311 122 266 c 1
 108 241 l 2
 104 234 91 230 85 235 c 2
 72 245 l 2
 65 250 62 263 66 272 c 2
 78 299 l 2
 105 361 134 431 225 431 c 0
 342 431 511 332 702 330 c 0
 714 330 723 326 719 311 c 2
 698 232 l 2
 696 223 686 220 675 220 c 0
 666 220 656 220 647 221 c 1
 647 220 l 1
 408 220 186 74 153 -74 c 0
 151 -85 150 -96 150 -107 c 0
 150 -204 245 -300 481 -300 c 0
 525 -300 575 -296 630 -289 c 0
 644 -288 646 -289 642 -305 c 2
 630 -370 l 2
 628 -381 625 -388 604 -389 c 0
 549 -396 498 -400 451 -400 c 0
 210 -400 87 -309 87 -139 c 0
 87 -120 89 -100 92 -79 c 0
 114 66 225 207 408 276 c 1
EndSplineSet
Colour: ffda6b
EndChar

StartChar: _.heh.fina
Encoding: 65545 -1 9
GlifName: _.heh.fina
Width: 803
VWidth: 1304
GlyphClass: 1
UnlinkRmOvrlpSave: 1
Flags: HMW
LayerCount: 2
Fore
SplineSet
66 272 m 2
 78 299 l 2
 105 361 134 431 225 431 c 0
 342 431 511 332 702 330 c 0
 714 330 723 326 719 311 c 2
 698 232 l 2
 696 223 686 220 675 220 c 0
 666 220 657 220 647 221 c 1
 647 220 l 1
 629 220 609 220 591 218 c 1
 616 102 666 100 760 100 c 2
 803 100 l 1
 803 -0 l 1
 575 0 544 52 513 205 c 1
 331 163 180 45 153 -74 c 0
 151 -85 150 -96 150 -107 c 0
 150 -204 245 -300 481 -300 c 0
 525 -300 575 -296 630 -289 c 0
 644 -288 646 -289 642 -305 c 2
 630 -370 l 2
 628 -381 625 -388 604 -389 c 0
 549 -396 498 -400 451 -400 c 0
 210 -400 87 -309 87 -139 c 0
 87 -120 89 -100 92 -79 c 0
 114 65 225 207 408 276 c 1
 337 298 270 319 216 319 c 0
 213 319 210 319 207 319 c 0
 171 319 146 311 122 266 c 1
 108 241 l 2
 104 234 91 230 85 235 c 2
 72 245 l 2
 65 250 62 263 66 272 c 2
EndSplineSet
Colour: ffda6b
EndChar

StartChar: _.heh.medi
Encoding: 65546 -1 10
GlifName: _.heh.medi
Width: 811
VWidth: 1304
GlyphClass: 1
UnlinkRmOvrlpSave: 1
Flags: HMW
LayerCount: 2
Fore
SplineSet
-50 50 m 0
 -50 75 -26 100 -1 100 c 2
 68 100 l 2
 291 100 373 198 481 263 c 1
 385 296 293 339 223 340 c 0
 182 340 156 334 130 287 c 2
 115 261 l 2
 111 255 99 251 93 255 c 2
 79 264 l 2
 72 269 69 283 73 292 c 2
 85 320 l 2
 112 380 141 450 232 450 c 0
 349 450 519 332 710 330 c 0
 722 330 731 326 727 311 c 2
 706 232 l 2
 704 223 693 220 682 220 c 2
 642 220 l 2
 627 220 613 218 599 216 c 1
 625 102 673 100 767 100 c 2
 811 100 l 1
 811 -0 l 1
 589 0 553 49 522 193 c 1
 403 134 347 0 72 -0 c 2
 -1 -0 l 1
 -26 1 -50 24 -50 50 c 0
EndSplineSet
Colour: ffda6b
EndChar

StartChar: _.heh.init
Encoding: 65547 -1 11
GlifName: _.heh.init
Width: 792
VWidth: 1304
GlyphClass: 1
UnlinkRmOvrlpSave: 1
Flags: HMW
LayerCount: 2
Fore
SplineSet
-50 50 m 0
 -50 75 -26 100 -1 100 c 2
 68 100 l 2
 291 100 373 198 481 263 c 1
 385 296 293 339 223 340 c 0
 182 340 156 334 130 287 c 2
 115 261 l 2
 111 255 99 251 93 255 c 2
 79 264 l 2
 72 269 69 283 73 292 c 2
 85 320 l 2
 112 380 141 450 232 450 c 0
 349 450 519 332 710 330 c 0
 722 330 731 326 727 311 c 2
 706 232 l 2
 704 223 693 220 682 220 c 2
 642 220 l 1
 417 219 423 0 72 -0 c 2
 -1 -0 l 1
 -26 1 -50 24 -50 50 c 0
EndSplineSet
Colour: ffda6b
EndChar

StartChar: _.sin.isol
Encoding: 65548 -1 12
GlifName: _.sin.isol
Width: 1344
VWidth: 1304
GlyphClass: 1
UnlinkRmOvrlpSave: 1
Flags: HMW
LayerCount: 2
Fore
SplineSet
64 -56 m 0
 64 16 82 106 125 220 c 0
 129 230 138 235 147 231 c 2
 177 220 l 2
 184 218 189 207 184 196 c 0
 150 111 134 39 134 -19 c 0
 134 -140 203 -201 316 -201 c 0
 421 -201 555 -140 624 -65 c 1
 626 -59 626 -52 626 -43 c 0
 626 19 588 143 567 208 c 0
 562 224 566 232 577 241 c 2
 624 282 l 2
 630 287 638 288 642 278 c 0
 652 251 662 219 672 186 c 0
 701 114 761 80 813 80 c 0
 853 80 889 101 902 140 c 2
 941 268 l 2
 943 275 955 281 962 279 c 2
 1008 261 l 2
 1017 257 1020 246 1018 237 c 2
 985 127 l 1
 1019 104 1070 81 1101 80 c 0
 1116 80 1171 96 1201 113 c 1
 1201 117 1201 121 1201 125 c 0
 1201 163 1191 207 1162 296 c 0
 1158 308 1162 314 1168 320 c 2
 1218 362 l 2
 1225 368 1235 372 1239 358 c 0
 1259 305 1280 234 1280 159 c 0
 1280 95 1254 52 1213 22 c 0
 1182 -1 1133 -20 1100 -20 c 0
 1054 -20 988 14 952 50 c 1
 919 6 863 -19 806 -19 c 0
 771 -19 735 -10 703 11 c 1
 703 4 702 -3 701 -9 c 0
 681 -160 500 -300 317 -301 c 0
 184 -301 64 -241 64 -56 c 0
EndSplineSet
Colour: ffda6b
EndChar

StartChar: _.sin.fina
Encoding: 65549 -1 13
GlifName: _.sin.fina
Width: 1421
VWidth: 1304
GlyphClass: 1
UnlinkRmOvrlpSave: 1
Flags: HMW
LayerCount: 2
Fore
SplineSet
1239 58 m 1
 1211 19 1144 -20 1090 -20 c 0
 1047 -20 986 11 949 45 c 1
 914 4 860 -19 805 -19 c 0
 770 -19 734 -10 702 11 c 1
 702 4 702 -3 701 -9 c 0
 681 -160 500 -300 317 -301 c 0
 184 -301 64 -241 64 -56 c 0
 64 16 82 106 125 220 c 0
 129 230 138 235 147 231 c 2
 177 220 l 2
 184 218 189 207 184 196 c 0
 150 111 134 39 134 -19 c 0
 134 -140 203 -201 316 -201 c 0
 421 -201 555 -140 624 -65 c 1
 626 -59 626 -52 626 -43 c 0
 626 19 588 143 567 208 c 0
 562 224 566 232 577 241 c 2
 624 282 l 2
 630 287 638 288 642 278 c 0
 651 252 660 222 670 191 c 0
 698 116 760 80 813 80 c 0
 853 80 889 101 902 140 c 2
 941 268 l 2
 943 275 955 281 962 279 c 2
 1008 261 l 2
 1017 257 1020 246 1018 237 c 2
 983 122 l 1
 1017 100 1063 80 1091 80 c 0
 1106 80 1171 99 1198 117 c 1
 1194 128 1191 140 1189 152 c 2
 1162 289 l 2
 1161 296 1167 308 1174 309 c 2
 1221 317 l 2
 1228 318 1239 314 1240 305 c 2
 1255 229 l 2
 1269 156 1267 133 1331 111 c 0
 1357 105 1387 100 1421 100 c 1
 1421 -0 l 1
 1350 0 1283 16 1239 58 c 1
EndSplineSet
Colour: ffda6b
EndChar

StartChar: _.sin.medi
Encoding: 65550 -1 14
GlifName: _.sin.medi
Width: 976
VWidth: 1304
GlyphClass: 1
UnlinkRmOvrlpSave: 1
Flags: HMW
LayerCount: 2
Fore
SplineSet
793 58 m 1
 765 19 698 -20 644 -20 c 0
 600 -20 539 11 502 45 c 1
 468 4 415 -19 360 -19 c 0
 303 -19 244 6 205 62 c 1
 146 16 68 0 4 -0 c 0
 2 0 1 0 -1 -0 c 0
 -25 0 -50 24 -50 49 c 0
 -50 76 -27 99 -2 100 c 0
 96 100 179 119 207 210 c 2
 229 284 l 2
 231 291 243 298 249 294 c 1
 296 277 l 2
 303 275 308 260 306 253 c 2
 282 176 l 2
 276 154 267 135 256 118 c 1
 285 93 324 79 361 79 c 0
 403 79 442 98 456 140 c 1
 495 268 l 2
 497 275 509 281 516 279 c 2
 562 261 l 2
 571 257 574 246 572 237 c 2
 538 121 l 1
 572 100 617 81 646 80 c 0
 661 80 726 99 753 117 c 1
 749 128 745 140 743 152 c 2
 716 289 l 2
 715 296 721 308 728 309 c 2
 775 317 l 2
 782 318 794 314 795 305 c 2
 809 229 l 2
 823 156 822 133 886 111 c 0
 912 105 942 100 976 100 c 1
 976 -0 l 1
 905 0 837 16 793 58 c 1
EndSplineSet
Colour: ffda6b
EndChar

StartChar: _.sin.init
Encoding: 65551 -1 15
GlifName: _.sin.init
Width: 898
VWidth: 1304
GlyphClass: 1
UnlinkRmOvrlpSave: 1
Flags: HMW
LayerCount: 2
Fore
SplineSet
-50 49 m 0
 -50 75 -28 99 -2 100 c 0
 96 100 179 119 207 210 c 2
 229 284 l 2
 231 291 243 298 249 294 c 1
 296 277 l 2
 303 275 308 260 306 253 c 2
 282 176 l 2
 276 155 268 135 257 118 c 1
 286 93 324 79 361 79 c 0
 403 79 442 98 456 140 c 1
 495 268 l 2
 497 275 509 281 516 279 c 2
 562 261 l 2
 571 257 574 246 572 237 c 2
 540 128 l 1
 573 103 624 80 655 80 c 0
 670 80 725 96 755 113 c 1
 755 117 756 121 756 125 c 0
 756 163 745 207 716 296 c 0
 712 308 716 314 722 320 c 2
 772 362 l 2
 779 368 789 372 793 358 c 0
 813 305 834 234 834 159 c 0
 834 95 808 52 767 22 c 0
 736 -1 687 -20 654 -20 c 0
 608 -20 543 14 506 50 c 1
 473 6 417 -19 360 -19 c 0
 303 -19 245 5 205 61 c 1
 147 15 71 0 7 -0 c 0
 4 0 1 0 -1 -0 c 0
 -25 0 -50 24 -50 49 c 0
EndSplineSet
Colour: ffda6b
EndChar

StartChar: _.sad.isol
Encoding: 65552 -1 16
GlifName: _.sad.isol
Width: 1395
VWidth: 1304
GlyphClass: 1
UnlinkRmOvrlpSave: 1
Flags: HMW
LayerCount: 2
Fore
SplineSet
832 -0 m 1
 771 3 736 15 702 32 c 1
 702 17 702 3 701 -9 c 0
 681 -160 501 -300 316 -301 c 0
 184 -301 64 -240 64 -56 c 0
 64 16 82 106 125 220 c 0
 129 230 138 235 147 231 c 2
 177 220 l 2
 184 218 189 207 184 196 c 0
 150 111 134 39 134 -19 c 0
 134 -140 203 -201 315 -201 c 0
 421 -201 555 -140 624 -65 c 1
 626 -59 626 -52 626 -43 c 0
 626 19 588 143 567 208 c 0
 562 224 566 232 577 241 c 2
 624 282 l 2
 630 287 638 288 642 278 c 0
 659 223 680 145 723 123 c 1
 852 262 985 439 1120 439 c 0
 1270 439 1331 303 1331 245 c 0
 1331 80 1215 0 1008 -0 c 2
 832 -0 l 1
779 108 m 1
 801 103 827 100 855 100 c 2
 1005 100 l 2
 1159 100 1229 142 1256 180 c 0
 1256 182 1257 183 1257 185 c 0
 1257 242 1185 340 1105 340 c 0
 992 340 912 254 779 108 c 1
EndSplineSet
Colour: ffda6b
EndChar

StartChar: _.sad.fina
Encoding: 65553 -1 17
GlifName: _.sad.fina
Width: 1464
VWidth: 1304
GlyphClass: 1
UnlinkRmOvrlpSave: 1
Flags: HMW
LayerCount: 2
Fore
SplineSet
832 -0 m 1
 771 3 736 15 702 32 c 1
 702 17 702 3 701 -9 c 0
 681 -160 501 -300 316 -301 c 0
 184 -301 64 -240 64 -56 c 0
 64 16 82 106 125 220 c 0
 129 230 138 235 147 231 c 2
 177 220 l 2
 184 218 189 207 184 196 c 0
 150 111 134 39 134 -19 c 0
 134 -140 203 -201 315 -201 c 0
 421 -201 555 -140 624 -65 c 1
 626 -59 626 -52 626 -43 c 0
 626 19 588 143 567 208 c 0
 562 224 566 232 577 241 c 2
 624 282 l 2
 630 287 638 288 642 278 c 0
 659 223 680 145 723 123 c 1
 852 262 985 439 1120 439 c 0
 1270 439 1331 303 1331 245 c 0
 1331 204 1325 168 1311 138 c 1
 1317 129 1327 123 1343 119 c 0
 1376 109 1415 100 1464 100 c 1
 1464 -0 l 1
 1396 0 1354 10 1322 27 c 0
 1295 38 1276 54 1261 72 c 1
 1206 23 1120 0 1008 -0 c 2
 832 -0 l 1
779 108 m 1
 801 103 827 100 855 100 c 2
 1005 100 l 2
 1159 100 1229 142 1256 180 c 0
 1256 182 1257 183 1257 185 c 0
 1257 242 1185 340 1105 340 c 0
 992 340 912 254 779 108 c 1
EndSplineSet
Colour: ffda6b
EndChar

StartChar: _.sad.medi
Encoding: 65554 -1 18
GlifName: _.sad.medi
Width: 1023
VWidth: 1304
GlyphClass: 1
UnlinkRmOvrlpSave: 1
Flags: HMW
LayerCount: 2
Fore
SplineSet
-50 50 m 0
 -49 76 -26 100 0 100 c 0
 74 100 127 117 164 138 c 1
 153 158 145 181 136 207 c 0
 132 218 130 225 142 239 c 2
 181 280 l 2
 190 290 198 285 202 273 c 0
 220 211 232 156 285 125 c 1
 413 264 545 439 679 439 c 0
 829 439 891 303 891 245 c 0
 891 204 884 168 870 138 c 1
 876 129 886 123 902 119 c 0
 935 109 974 100 1023 100 c 1
 1023 -0 l 1
 955 0 913 10 881 27 c 0
 854 38 835 54 820 72 c 1
 765 23 679 0 567 -0 c 2
 389 -0 l 1
 311 4 251 27 207 74 c 1
 179 38 112 0 0 -0 c 0
 -26 0 -50 24 -50 50 c 0
337 107 m 1
 359 102 384 100 415 100 c 2
 564 100 l 2
 718 100 788 142 815 180 c 0
 815 182 816 183 816 185 c 0
 816 242 744 340 664 340 c 0
 551 340 470 255 337 107 c 1
EndSplineSet
Colour: ffda6b
EndChar

StartChar: _.sad.init
Encoding: 65555 -1 19
GlifName: _.sad.init
Width: 955
VWidth: 1304
GlyphClass: 1
UnlinkRmOvrlpSave: 1
Flags: HMW
LayerCount: 2
Fore
SplineSet
-50 50 m 0
 -49 76 -26 100 0 100 c 0
 74 100 127 117 164 138 c 1
 153 158 145 181 136 207 c 0
 132 218 130 225 142 239 c 2
 181 280 l 2
 190 290 198 285 202 273 c 0
 220 211 232 156 285 125 c 1
 413 264 545 439 679 439 c 0
 829 439 891 303 891 245 c 0
 891 80 774 0 567 -0 c 2
 389 -0 l 1
 311 4 251 27 207 74 c 1
 179 38 112 0 0 -0 c 0
 -26 0 -50 24 -50 50 c 0
337 107 m 1
 359 102 384 100 415 100 c 2
 564 100 l 2
 718 100 788 142 815 180 c 0
 815 182 816 183 816 185 c 0
 816 242 744 340 664 340 c 0
 551 340 470 255 337 107 c 1
EndSplineSet
Colour: ffda6b
EndChar

StartChar: _.ta.isol
Encoding: 65556 -1 20
GlifName: _.ta.isol
Width: 891
VWidth: 1304
GlyphClass: 1
UnlinkRmOvrlpSave: 1
Flags: HMW
LayerCount: 2
Fore
SplineSet
64 87 m 0
 64 95 69 100 82 100 c 2
 170 100 l 2
 201 100 219 114 218 141 c 2
 202 700 l 2
 202 707 201 713 201 718 c 0
 201 752 209 762 277 800 c 1
 286 800 289 798 289 789 c 2
 289 202 l 1
 396 321 504 439 615 439 c 0
 765 439 827 303 827 245 c 0
 827 80 710 0 503 -0 c 2
 146 -0 l 2
 129 0 64 60 64 87 c 0
267 100 m 1
 501 100 l 2
 655 100 725 142 752 180 c 0
 752 182 752 183 752 185 c 0
 752 242 681 340 601 340 c 0
 487 340 404 253 267 100 c 1
EndSplineSet
Colour: ffda6b
EndChar

StartChar: _.ta.fina
Encoding: 65557 -1 21
GlifName: _.ta.fina
Width: 960
VWidth: 1304
GlyphClass: 1
UnlinkRmOvrlpSave: 1
Flags: HMW
LayerCount: 2
Fore
SplineSet
64 87 m 0
 64 95 69 100 82 100 c 2
 170 100 l 2
 201 100 219 114 218 141 c 2
 202 700 l 2
 202 707 201 713 201 718 c 0
 201 752 209 762 277 800 c 1
 286 800 289 798 289 789 c 2
 289 202 l 1
 396 321 504 439 615 439 c 0
 765 439 827 303 827 245 c 0
 827 204 820 168 806 138 c 1
 812 129 822 123 838 119 c 0
 871 109 911 100 960 100 c 1
 960 -0 l 1
 892 0 849 10 817 27 c 0
 790 38 772 54 757 72 c 1
 702 23 615 0 503 -0 c 2
 146 -0 l 2
 129 0 64 60 64 87 c 0
267 100 m 1
 501 100 l 2
 655 100 725 142 752 180 c 0
 752 182 752 183 752 185 c 0
 752 242 681 340 601 340 c 0
 487 340 404 253 267 100 c 1
EndSplineSet
Colour: ffda6b
EndChar

StartChar: _.ta.medi
Encoding: 65558 -1 22
GlifName: _.ta.medi
Width: 803
VWidth: 1304
GlyphClass: 1
UnlinkRmOvrlpSave: 1
Flags: HMW
LayerCount: 2
Fore
SplineSet
-50 50 m 0
 -50 76 -26 100 -1 100 c 2
 13 100 l 2
 44 100 62 114 61 141 c 2
 45 700 l 2
 45 707 44 713 44 718 c 0
 44 752 52 762 120 800 c 1
 129 800 132 798 132 789 c 2
 132 202 l 1
 239 321 347 439 458 439 c 0
 608 439 670 303 670 245 c 0
 670 204 663 168 649 138 c 1
 655 129 665 123 681 119 c 0
 714 109 754 100 803 100 c 1
 803 -0 l 1
 735 0 692 10 660 27 c 0
 633 38 615 54 600 72 c 1
 545 23 458 0 346 -0 c 2
 0 -0 l 2
 -26 0 -50 24 -50 50 c 0
110 100 m 1
 344 100 l 2
 498 100 568 142 595 180 c 0
 595 182 595 183 595 185 c 0
 595 242 524 340 444 340 c 0
 330 340 247 253 110 100 c 1
EndSplineSet
Colour: ffda6b
EndChar

StartChar: _.ta.init
Encoding: 65559 -1 23
GlifName: _.ta.init
Width: 734
VWidth: 1304
GlyphClass: 1
UnlinkRmOvrlpSave: 1
Flags: HMW
LayerCount: 2
Fore
SplineSet
-50 50 m 0
 -50 76 -26 100 -1 100 c 2
 13 100 l 2
 44 100 62 114 61 141 c 2
 45 700 l 2
 45 707 44 713 44 718 c 0
 44 752 52 762 120 800 c 1
 129 800 132 798 132 789 c 2
 132 202 l 1
 239 321 347 439 458 439 c 0
 608 439 670 303 670 245 c 0
 670 80 553 0 346 -0 c 2
 0 -0 l 2
 -26 0 -50 24 -50 50 c 0
110 100 m 1
 344 100 l 2
 498 100 568 142 595 180 c 0
 595 182 595 183 595 185 c 0
 595 242 524 340 444 340 c 0
 330 340 247 253 110 100 c 1
EndSplineSet
Colour: ffda6b
EndChar

StartChar: _.ein.isol
Encoding: 65560 -1 24
GlifName: _.ein.isol
Width: 692
VWidth: 1304
GlyphClass: 1
UnlinkRmOvrlpSave: 1
Flags: HMW
LayerCount: 2
Fore
SplineSet
440 520 m 0
 341 520 289 482 289 451 c 0
 289 408 328 311 417 287 c 1
 485 302 550 311 613 317 c 0
 630 318 628 307 626 298 c 2
 616 260 l 2
 614 251 615 241 592 235 c 0
 528 220 457 200 398 177 c 0
 258 123 152 24 130 -74 c 0
 128 -85 127 -96 127 -107 c 0
 127 -204 222 -300 458 -300 c 0
 502 -300 552 -296 607 -289 c 0
 621 -288 623 -289 619 -305 c 2
 607 -370 l 2
 605 -381 602 -388 581 -389 c 0
 526 -396 475 -400 428 -400 c 0
 187 -400 64 -309 64 -139 c 0
 64 -120 66 -100 69 -79 c 0
 87 40 166 156 295 232 c 1
 274 262 l 2
 242 306 216 361 216 417 c 0
 216 436 219 455 226 474 c 0
 263 579 341 622 422 622 c 0
 481 622 542 599 592 560 c 0
 602 551 599 540 598 535 c 2
 589 509 l 2
 585 499 577 498 568 500 c 0
 519 515 477 520 440 520 c 0
EndSplineSet
Colour: ffda6b
EndChar

StartChar: _.ein.fina
Encoding: 65561 -1 25
GlifName: _.ein.fina
Width: 660
VWidth: 1304
GlyphClass: 1
UnlinkRmOvrlpSave: 1
Flags: HMW
LayerCount: 2
Fore
SplineSet
65 346 m 2
 83 415 l 2
 85 421 88 431 108 441 c 0
 189 484 278 507 354 514 c 0
 366 515 377 516 387 516 c 0
 498 516 538 463 538 398 c 0
 538 390 537 382 536 374 c 0
 526 309 474 234 392 177 c 1
 436 135 492 102 567 100 c 1
 660 100 l 1
 660 -0 l 1
 480 0 399 33 330 127 c 0
 328 131 326 134 322 138 c 1
 225 81 154 4 137 -74 c 0
 135 -85 134 -96 134 -107 c 0
 134 -204 229 -300 465 -300 c 0
 509 -300 559 -296 614 -289 c 0
 628 -288 630 -289 626 -305 c 2
 614 -370 l 2
 612 -381 609 -388 588 -389 c 0
 533 -396 482 -400 435 -400 c 0
 194 -400 71 -309 71 -139 c 0
 71 -120 73 -100 76 -79 c 0
 93 29 159 136 269 212 c 1
 254 232 236 253 218 276 c 0
 183 317 136 344 102 344 c 0
 91 344 81 337 73 333 c 0
 63 329 64 341 65 346 c 2
202 384 m 1
 223 370 244 353 265 332 c 0
 283 312 304 281 330 247 c 1
 411 284 470 328 471 374 c 1
 462 398 420 415 368 415 c 0
 310 415 255 401 202 384 c 1
EndSplineSet
Colour: ffda6b
EndChar

StartChar: _.ein.medi
Encoding: 65562 -1 26
GlifName: _.ein.medi
Width: 648
VWidth: 1304
GlyphClass: 1
UnlinkRmOvrlpSave: 1
Flags: HMW
LayerCount: 2
Fore
SplineSet
-50 49 m 0
 -50 76 -27 100 -1 100 c 0
 74 100 168 117 252 144 c 1
 237 160 222 178 206 196 c 0
 172 237 124 266 90 266 c 0
 83 266 76 263 72 260 c 0
 62 256 61 267 62 272 c 2
 82 340 l 2
 83 347 87 357 105 367 c 0
 186 410 275 434 351 441 c 0
 363 442 374 442 384 442 c 0
 495 442 536 390 536 326 c 0
 536 318 535 309 534 300 c 0
 525 241 481 181 412 129 c 1
 451 112 498 101 556 100 c 1
 648 100 l 1
 648 -0 l 1
 511 0 418 14 329 77 c 1
 237 30 122 0 -1 -0 c 0
 -25 0 -50 24 -50 49 c 0
188 305 m 1
 210 293 232 274 253 252 c 0
 276 229 301 202 333 176 c 1
 412 212 468 256 468 300 c 1
 460 324 420 340 370 340 c 0
 305 340 247 325 188 305 c 1
EndSplineSet
Colour: ffda6b
EndChar

StartChar: _.ein.init
Encoding: 65563 -1 27
GlifName: _.ein.init
Width: 569
VWidth: 1304
GlyphClass: 1
UnlinkRmOvrlpSave: 1
Flags: HMW
LayerCount: 2
Fore
SplineSet
317 370 m 0
 218 370 166 332 166 300 c 0
 166 257 206 161 295 138 c 1
 363 152 427 171 490 177 c 0
 507 178 506 166 504 157 c 2
 494 119 l 2
 492 110 493 101 470 96 c 0
 387 77 294 51 211 29 c 0
 143 13 70 0 0 -0 c 1
 -25 1 -50 24 -50 50 c 0
 -50 75 -26 100 -1 100 c 0
 51 100 103 105 152 112 c 1
 120 156 94 210 94 266 c 0
 94 285 97 305 104 324 c 0
 141 429 219 472 300 472 c 0
 359 472 420 449 470 410 c 0
 480 403 477 390 476 385 c 2
 467 359 l 2
 463 349 455 347 446 349 c 0
 397 364 354 370 317 370 c 0
EndSplineSet
Colour: ffda6b
EndChar

StartChar: _.feh.isol
Encoding: 65564 -1 28
GlifName: _.feh.isol
Width: 930
VWidth: 1304
GlyphClass: 1
UnlinkRmOvrlpSave: 1
Flags: HMW
LayerCount: 2
Fore
SplineSet
526 343 m 1
 536 493 592 581 686 581 c 0
 835 581 866 360 866 209 c 0
 866 206 866 203 866 200 c 0
 866 121 853 99 753 65 c 0
 647 31 546 -1 358 -1 c 0
 199 -1 64 47 64 217 c 0
 64 267 76 327 102 400 c 0
 104 406 113 409 118 407 c 2
 153 393 l 2
 158 391 163 384 159 373 c 0
 142 328 135 289 135 256 c 0
 135 138 238 100 369 100 c 0
 371 100 372 100 374 100 c 0
 536 100 677 133 785 170 c 1
 785 187 785 206 784 226 c 1
 748 208 710 200 669 200 c 0
 567 200 526 268 526 334 c 0
 526 336 526 338 526 340 c 2
 526 343 l 1
672 482 m 0
 611 482 582 406 582 364 c 0
 582 308 633 300 669 300 c 2
 673 300 l 2
 705 300 741 310 772 325 c 1
 756 408 725 482 672 482 c 0
EndSplineSet
Colour: ffda6b
EndChar

StartChar: _.feh.fina
Encoding: 65565 -1 29
GlifName: _.feh.fina
Width: 1033
VWidth: 1304
GlyphClass: 1
UnlinkRmOvrlpSave: 1
Flags: HMW
LayerCount: 2
Fore
SplineSet
64 217 m 0
 64 267 76 327 102 400 c 0
 104 406 113 409 118 407 c 2
 153 393 l 2
 158 391 163 384 159 373 c 0
 142 328 135 289 135 256 c 0
 135 138 238 100 369 100 c 0
 371 100 372 100 374 100 c 0
 477 100 571 113 653 133 c 1
 627 161 609 190 600 220 c 0
 598 227 597 236 597 246 c 0
 597 326 664 480 768 480 c 0
 859 480 919 337 919 279 c 0
 919 220 892 167 845 122 c 1
 893 107 945 100 999 100 c 2
 1033 100 l 1
 1033 -0 l 1
 1003 -0 l 2
 902 0 813 26 745 63 c 1
 642 29 541 -1 358 -1 c 0
 199 -1 64 47 64 217 c 0
658 253 m 1
 678 217 712 186 754 161 c 1
 819 194 859 231 859 255 c 0
 859 295 799 379 759 379 c 0
 758 379 l 0
 719 379 659 300 658 253 c 1
EndSplineSet
Colour: ffda6b
EndChar

StartChar: _.feh.medi
Encoding: 65566 -1 30
GlifName: _.feh.medi
Width: 524
VWidth: 1304
GlyphClass: 1
UnlinkRmOvrlpSave: 1
Flags: HMW
LayerCount: 2
Fore
SplineSet
-50 50 m 0
 -49 75 -27 99 -2 100 c 0
 56 100 109 108 155 121 c 1
 122 152 99 187 90 220 c 0
 88 227 88 236 88 245 c 0
 88 325 153 480 258 480 c 0
 349 480 409 337 409 279 c 0
 409 221 383 166 338 121 c 1
 385 107 437 100 489 100 c 2
 524 100 l 1
 524 -0 l 1
 493 -0 l 2
 398 0 314 22 248 56 c 1
 181 21 95 0 0 -0 c 1
 -23 1 -50 24 -50 50 c 0
148 253 m 1
 169 216 205 184 249 159 c 1
 311 192 349 232 349 255 c 0
 349 295 289 379 249 379 c 0
 248 379 l 0
 210 379 149 300 148 253 c 1
EndSplineSet
Colour: ffda6b
EndChar

StartChar: _.feh.init
Encoding: 65567 -1 31
GlifName: _.feh.init
Width: 415
VWidth: 1304
GlyphClass: 1
UnlinkRmOvrlpSave: 1
Flags: HMW
LayerCount: 2
Fore
SplineSet
12 343 m 1
 22 493 78 581 172 581 c 0
 319 581 351 366 351 215 c 0
 351 200 351 186 350 173 c 0
 346 52 237 0 110 -0 c 2
 0 -0 l 2
 -25 0 -50 24 -50 50 c 0
 -49 76 -25 100 0 100 c 2
 110 100 l 2
 164 100 218 109 266 134 c 1
 268 150 270 169 270 190 c 0
 270 202 270 213 269 226 c 1
 233 208 195 200 154 200 c 0
 52 200 11 268 11 334 c 0
 11 336 12 338 12 340 c 2
 12 343 l 1
157 482 m 0
 96 482 68 406 68 364 c 0
 68 308 118 300 154 300 c 2
 158 300 l 2
 190 300 227 310 258 325 c 1
 242 408 210 482 157 482 c 0
EndSplineSet
Colour: ffda6b
EndChar

StartChar: _.qaf.isol
Encoding: 65568 -1 32
GlifName: _.qaf.isol
Width: 765
VWidth: 1304
GlyphClass: 1
UnlinkRmOvrlpSave: 1
Flags: HMW
LayerCount: 2
Fore
SplineSet
362 144 m 1
 373 294 426 382 520 382 c 0
 661 382 697 188 701 39 c 0
 701 23 701 15 701 6 c 0
 701 1 701 -3 701 -10 c 0
 680 -161 500 -300 317 -301 c 0
 184 -301 64 -241 64 -57 c 0
 64 15 83 106 126 220 c 0
 130 230 138 235 147 231 c 2
 176 220 l 2
 183 218 189 207 185 196 c 0
 150 111 134 39 134 -19 c 0
 134 -139 203 -201 315 -201 c 0
 417 -201 546 -144 617 -73 c 1
 621 -61 622 -48 622 -33 c 0
 622 -18 620 1 619 26 c 1
 582 9 545 0 504 -0 c 0
 404 0 362 67 362 131 c 0
 362 134 362 136 362 139 c 2
 362 144 l 1
506 282 m 0
 446 282 418 205 418 163 c 0
 418 108 468 100 504 100 c 2
 509 100 l 2
 541 100 576 110 608 125 c 1
 592 208 561 282 506 282 c 0
EndSplineSet
Colour: ffda6b
EndChar

StartChar: _.qaf.fina
Encoding: 65569 -1 33
GlifName: _.qaf.fina
Width: 832
VWidth: 1304
GlyphClass: 1
UnlinkRmOvrlpSave: 1
Flags: HMW
LayerCount: 2
Fore
SplineSet
701 -0 m 1
 701 -4 701 -7 701 -11 c 0
 680 -161 500 -300 317 -301 c 0
 184 -301 64 -241 64 -57 c 0
 64 15 83 106 126 220 c 0
 130 230 138 235 147 231 c 2
 176 220 l 2
 183 218 189 207 185 196 c 0
 150 111 134 39 134 -19 c 0
 134 -139 203 -201 315 -201 c 0
 415 -201 542 -147 613 -77 c 1
 618 -60 620 -48 621 -16 c 1
 621 -0 l 1
 505 -0 l 2
 405 0 362 66 362 131 c 0
 362 134 362 136 362 139 c 0
 373 288 423 382 520 382 c 0
 645 382 686 227 697 100 c 1
 832 100 l 1
 832 -0 l 1
 701 -0 l 1
507 282 m 0
 446 282 418 205 418 164 c 0
 418 109 465 100 501 100 c 2
 612 100 l 1
 599 193 565 282 507 282 c 0
EndSplineSet
Colour: ffda6b
EndChar

StartChar: _.kaf.isol.fa
Encoding: 65570 -1 34
GlifName: _.kaf.isol.fa
Width: 1057
VWidth: 1304
GlyphClass: 1
UnlinkRmOvrlpSave: 1
Flags: HMW
LayerCount: 2
Fore
SplineSet
64 217 m 0
 64 267 76 327 102 400 c 0
 104 406 113 409 118 407 c 2
 153 393 l 2
 158 391 163 384 159 373 c 0
 142 328 135 289 135 256 c 0
 135 138 238 100 369 100 c 0
 371 100 372 100 374 100 c 0
 547 100 689 138 803 176 c 1
 789 278 700 399 568 485 c 0
 557 493 550 505 550 516 c 0
 550 519 551 522 552 525 c 0
 559 547 566 570 572 593 c 1
 578 609 592 626 608 633 c 2
 977 800 l 2
 979 801 981 801 983 801 c 0
 990 801 993 793 993 782 c 0
 993 753 973 702 951 692 c 2
 642 553 l 1
 779 450 865 312 865 200 c 0
 865 121 853 99 753 65 c 0
 647 31 546 -1 358 -1 c 0
 199 -1 64 47 64 217 c 0
EndSplineSet
Colour: ffda6b
EndChar

StartChar: _.kaf.isol.ar
Encoding: 65571 -1 35
GlifName: _.kaf.isol.ar
Width: 929
VWidth: 1304
GlyphClass: 1
UnlinkRmOvrlpSave: 1
Flags: HMW
LayerCount: 2
Fore
SplineSet
64 217 m 0
 64 267 76 327 102 400 c 0
 104 406 113 409 118 407 c 2
 153 393 l 2
 158 391 163 384 159 373 c 0
 142 328 135 289 135 256 c 0
 135 138 238 100 369 100 c 0
 371 100 372 100 374 100 c 0
 540 100 682 134 792 172 c 1
 776 700 l 2
 776 707 776 713 776 718 c 0
 776 752 784 762 853 800 c 0
 860 800 865 798 865 789 c 2
 865 200 l 2
 865 121 853 99 753 65 c 0
 647 31 546 -1 358 -1 c 0
 199 -1 64 47 64 217 c 0
EndSplineSet
Colour: ffda6b
EndChar

StartChar: _.kaf.fina.fa
Encoding: 65572 -1 36
GlifName: _.kaf.fina.fa
Width: 1080
VWidth: 1304
GlyphClass: 1
UnlinkRmOvrlpSave: 1
Flags: HMW
LayerCount: 2
Fore
SplineSet
64 217 m 0
 64 267 76 327 102 400 c 0
 104 406 113 409 118 407 c 2
 153 393 l 2
 158 391 163 384 159 373 c 0
 142 328 135 289 135 256 c 0
 135 138 238 100 369 100 c 0
 371 100 372 100 374 100 c 0
 547 100 689 138 803 176 c 1
 793 247 750 316 704 368 c 0
 667 410 621 451 568 485 c 0
 557 493 550 505 550 516 c 0
 550 519 551 522 552 525 c 0
 559 547 566 570 572 593 c 1
 578 609 592 626 608 633 c 2
 977 800 l 2
 979 801 981 801 983 801 c 0
 990 801 993 793 993 782 c 0
 993 753 973 702 951 692 c 2
 642 553 l 1
 708 503 763 444 801 384 c 0
 821 359 836 325 848 294 c 0
 889 193 915 100 1080 100 c 1
 1080 -0 l 1
 947 0 893 45 849 119 c 1
 833 98 805 83 753 65 c 0
 647 31 546 -1 358 -1 c 0
 199 -1 64 47 64 217 c 0
EndSplineSet
Colour: ffda6b
EndChar

StartChar: _.kaf.fina.ar
Encoding: 65573 -1 37
GlifName: _.kaf.fina.ar
Width: 1058
VWidth: 1304
GlyphClass: 1
UnlinkRmOvrlpSave: 1
Flags: HMW
LayerCount: 2
Fore
SplineSet
64 217 m 0
 64 267 76 327 102 400 c 0
 104 406 113 409 118 407 c 2
 153 393 l 2
 158 391 163 384 159 373 c 0
 142 328 135 289 135 256 c 0
 135 138 238 100 369 100 c 0
 371 100 372 100 374 100 c 0
 540 100 682 134 792 172 c 1
 776 700 l 2
 776 707 776 713 776 718 c 0
 776 752 784 762 853 800 c 0
 860 800 865 798 865 789 c 2
 865 244 l 1
 901 160 950 101 1058 100 c 1
 1058 -0 l 1
 944 0 885 33 838 107 c 1
 821 92 794 80 753 65 c 0
 647 31 546 -1 358 -1 c 0
 199 -1 64 47 64 217 c 0
EndSplineSet
Colour: ffda6b
EndChar

StartChar: _.kaf.medi
Encoding: 65574 -1 38
GlifName: _.kaf.medi
Width: 536
VWidth: 1304
GlyphClass: 1
UnlinkRmOvrlpSave: 1
Flags: HMW
LayerCount: 2
Fore
SplineSet
-50 50 m 0
 -50 75 -26 100 -1 100 c 2
 89 100 l 2
 149 100 253 124 260 160 c 1
 254 265 162 394 24 485 c 0
 13 493 6 505 6 516 c 0
 6 519 7 522 8 525 c 0
 15 547 22 570 28 593 c 1
 34 609 47 626 63 633 c 2
 433 800 l 2
 435 801 436 801 438 801 c 0
 445 801 449 793 449 782 c 0
 449 753 429 702 407 692 c 2
 98 553 l 1
 183 489 266 396 303 294 c 0
 344 193 371 100 536 100 c 1
 536 -0 l 1
 406 0 350 45 306 116 c 1
 273 34 185 0 80 -0 c 2
 -1 -0 l 1
 -26 1 -50 24 -50 50 c 0
EndSplineSet
Colour: ffda6b
EndChar

StartChar: _.kaf.init
Encoding: 65575 -1 39
GlifName: _.kaf.init
Width: 513
VWidth: 1304
GlyphClass: 1
UnlinkRmOvrlpSave: 1
Flags: HMW
LayerCount: 2
Fore
SplineSet
-50 50 m 0
 -50 75 -26 100 -1 100 c 2
 89 100 l 2
 149 100 253 124 260 160 c 1
 254 265 162 394 24 485 c 0
 13 493 6 505 6 516 c 0
 6 519 7 522 8 525 c 0
 15 547 22 570 28 593 c 1
 34 609 47 626 63 633 c 2
 433 800 l 2
 435 801 436 801 438 801 c 0
 445 801 449 793 449 782 c 0
 449 753 429 702 407 692 c 2
 98 553 l 1
 235 448 321 311 321 198 c 0
 320 54 213 0 80 -0 c 2
 -1 -0 l 1
 -26 1 -50 24 -50 50 c 0
EndSplineSet
Colour: ffda6b
EndChar

StartChar: _.kaf_hamze.isol.ar
Encoding: 65576 -1 40
GlifName: _.kaf_hamze.isol.ar
Width: 284
VWidth: 1304
GlyphClass: 1
UnlinkRmOvrlpSave: 1
Flags: HMW
LayerCount: 2
Fore
SplineSet
180 87 m 0
 180 124 78 87 78 149 c 0
 78 192 121 254 186 254 c 0
 195 254 205 253 215 250 c 1
 215 205 l 1
 208 206 202 207 195 207 c 0
 155 207 115 190 115 166 c 0
 115 130 220 156 220 103 c 0
 220 32 118 0 64 -6 c 1
 64 42 l 1
 122 54 180 72 180 87 c 0
EndSplineSet
Colour: ffda6b
EndChar

StartChar: _.ghaf.isol
Encoding: 65577 -1 41
GlifName: _.ghaf.isol
Width: 1057
VWidth: 0
GlyphClass: 1
UnlinkRmOvrlpSave: 1
Flags: HMW
LayerCount: 2
Fore
SplineSet
64 217 m 0
 64 267 76 327 102 400 c 0
 104 406 113 409 118 407 c 2
 153 393 l 2
 158 391 163 384 159 373 c 0
 142 328 135 289 135 256 c 0
 135 138 238 100 369 100 c 0
 371 100 372 100 374 100 c 0
 547 100 689 138 803 176 c 1
 789 278 700 399 568 485 c 0
 557 493 550 505 550 516 c 0
 550 519 551 522 552 525 c 0
 559 547 566 570 572 593 c 1
 578 609 592 626 608 633 c 2
 977 800 l 2
 979 801 981 801 983 801 c 0
 990 801 993 793 993 782 c 0
 993 753 973 702 951 692 c 2
 642 553 l 1
 779 450 865 312 865 200 c 0
 865 121 853 99 753 65 c 0
 647 31 546 -1 358 -1 c 0
 199 -1 64 47 64 217 c 0
602 707 m 0
 602 723 614 752 626 758 c 2
 905 884 l 2
 906 884 907 884 908 884 c 0
 912 884 914 879 914 873 c 0
 914 858 904 832 893 826 c 2
 611 698 l 2
 610 697 609 697 608 697 c 0
 604 697 602 701 602 707 c 0
EndSplineSet
Colour: ffda6b
EndChar

StartChar: _.ghaf.fina
Encoding: 65578 -1 42
GlifName: _.ghaf.fina
Width: 1080
VWidth: 0
GlyphClass: 1
Flags: HMW
LayerCount: 2
Fore
SplineSet
64 217 m 0
 64 267 76 327 102 400 c 0
 104 406 113 409 118 407 c 2
 153 393 l 2
 158 391 163 384 159 373 c 0
 142 328 135 289 135 256 c 0
 135 138 238 100 369 100 c 0
 371 100 372 100 374 100 c 0
 547 100 689 138 803 176 c 1
 789 278 700 399 568 485 c 0
 557 493 550 505 550 516 c 0
 550 519 551 522 552 525 c 0
 559 547 566 570 572 593 c 1
 578 609 592 626 608 633 c 2
 977 800 l 2
 979 801 981 801 983 801 c 0
 990 801 993 793 993 782 c 0
 993 753 973 702 951 692 c 2
 642 553 l 1
 708 503 763 444 801 386 c 0
 805 379 809 372 813 365 c 0
 881 247 875 100 1080 100 c 1
 1080 -0 l 1
 947 0 893 45 849 119 c 1
 833 98 805 83 753 65 c 0
 647 31 546 -1 358 -1 c 0
 199 -1 64 47 64 217 c 0
602 707 m 0
 602 723 614 752 626 758 c 2
 905 884 l 2
 906 884 907 884 908 884 c 0
 912 884 914 879 914 873 c 0
 914 858 904 832 893 826 c 2
 611 698 l 2
 610 697 609 697 608 697 c 0
 604 697 602 701 602 707 c 0
EndSplineSet
Colour: ffda6b
EndChar

StartChar: _.lam.isol
Encoding: 65580 -1 44
GlifName: _.lam.isol
Width: 765
VWidth: 1304
GlyphClass: 1
UnlinkRmOvrlpSave: 1
Flags: HMW
LayerCount: 2
Fore
SplineSet
64 -56 m 0
 64 16 82 106 125 220 c 0
 129 230 138 235 147 231 c 2
 177 220 l 2
 184 218 189 207 184 196 c 0
 150 111 134 39 134 -19 c 0
 134 -140 203 -201 316 -201 c 0
 385 -201 468 -175 534 -136 c 0
 577 -110 623 -74 637 -57 c 1
 613 700 l 2
 613 707 612 713 612 718 c 0
 612 752 620 762 689 800 c 0
 696 800 701 798 701 789 c 2
 701 -16 l 1
 676 -165 498 -300 317 -301 c 0
 184 -301 64 -241 64 -56 c 0
EndSplineSet
Colour: ffda6b
EndChar

StartChar: _.lam.fina
Encoding: 65581 -1 45
GlifName: _.lam.fina
Width: 866
VWidth: 1304
GlyphClass: 1
UnlinkRmOvrlpSave: 1
Flags: HMW
LayerCount: 2
Fore
SplineSet
866 -0 m 1
 784 0 742 13 701 38 c 1
 701 -16 l 1
 676 -165 498 -300 317 -301 c 0
 184 -301 64 -241 64 -56 c 0
 64 16 82 106 125 220 c 0
 129 230 138 235 147 231 c 2
 177 220 l 2
 184 218 189 207 184 196 c 0
 150 111 134 39 134 -19 c 0
 134 -140 203 -201 316 -201 c 0
 385 -201 468 -175 534 -136 c 0
 577 -110 623 -74 637 -57 c 1
 613 700 l 2
 613 707 612 713 612 718 c 0
 612 752 620 762 689 800 c 0
 696 800 701 798 701 789 c 2
 701 154 l 1
 712 137 727 123 744 119 c 0
 776 109 816 100 866 100 c 1
 866 -0 l 1
EndSplineSet
Colour: ffda6b
EndChar

StartChar: _.lam.medi
Encoding: 65582 -1 46
GlifName: _.lam.medi
Width: 419
VWidth: 1304
GlyphClass: 1
UnlinkRmOvrlpSave: 1
Flags: HMW
LayerCount: 2
Fore
SplineSet
218 68 m 1
 175 21 128 0 25 -0 c 2
 -1 -0 l 2
 -25 0 -50 24 -50 49 c 0
 -50 76 -27 100 -1 100 c 2
 24 100 l 2
 83 100 141 110 193 140 c 1
 177 700 l 2
 177 707 176 713 176 718 c 0
 176 752 184 762 253 800 c 0
 260 800 265 798 265 789 c 2
 265 180 l 2
 265 176 265 170 265 166 c 0
 265 145 267 126 297 119 c 0
 329 109 369 100 419 100 c 1
 419 -0 l 1
 350 0 307 10 275 27 c 0
 254 37 233 51 218 68 c 1
EndSplineSet
Colour: ffda6b
EndChar

StartChar: _.lam.init
Encoding: 65583 -1 47
GlifName: _.lam.init
Width: 304
VWidth: 1304
GlyphClass: 1
UnlinkRmOvrlpSave: 1
Flags: HMW
LayerCount: 2
Fore
SplineSet
-50 50 m 0
 -49 76 -25 100 0 100 c 0
 58 100 118 110 168 140 c 1
 120 700 l 2
 120 703 120 706 120 709 c 0
 120 751 122 758 196 800 c 1
 205 800 209 798 209 789 c 2
 239 180 l 2
 239 177 240 173 240 170 c 0
 240 106 204 62 148 29 c 0
 115 11 70 0 0 -0 c 0
 -27 1 -50 24 -50 50 c 0
EndSplineSet
Colour: ffda6b
EndChar

StartChar: _.mim.isol
Encoding: 65584 -1 48
GlifName: _.mim.isol
Width: 635
VWidth: 1304
GlyphClass: 1
UnlinkRmOvrlpSave: 1
Flags: HMW
LayerCount: 2
Fore
SplineSet
571 253 m 0
 571 175 535 101 456 100 c 0
 399 100 332 129 283 156 c 1
 245 170 215 176 192 176 c 0
 158 176 138 164 130 151 c 1
 183 -302 l 1
 183 -315 184 -325 184 -333 c 0
 184 -357 176 -369 118 -402 c 1
 109 -402 105 -399 105 -390 c 2
 65 107 l 2
 65 113 64 119 64 125 c 0
 64 213 115 287 207 287 c 0
 219 287 233 286 246 283 c 1
 252 295 l 1
 270 327 290 369 320 422 c 0
 344 465 375 483 407 483 c 0
 486 483 571 371 571 253 c 0
301 266 m 1
 337 245 402 206 470 206 c 0
 483 206 496 208 509 212 c 1
 491 300 424 367 379 367 c 0
 366 367 355 361 347 348 c 0
 329 318 315 291 301 266 c 1
EndSplineSet
Colour: ffda6b
EndChar

StartChar: _.mim.fina
Encoding: 65585 -1 49
GlifName: _.mim.fina
Width: 675
VWidth: 1304
GlyphClass: 1
UnlinkRmOvrlpSave: 1
Flags: HMW
LayerCount: 2
Fore
SplineSet
64 108 m 1
 64 264 196 306 414 317 c 1
 414 320 l 1
 413 331 420 336 427 342 c 2
 473 381 l 2
 475 383 483 388 484 379 c 2
 518 172 l 1
 527 141 542 126 585 111 c 0
 611 105 641 100 675 100 c 1
 675 -0 l 1
 607 0 563 10 531 27 c 0
 529 28 526 30 522 31 c 1
 510 -26 472 -69 388 -78 c 0
 386 -78 383 -78 381 -78 c 0
 297 -78 225 -7 225 107 c 0
 225 135 229 165 239 198 c 1
 197 188 159 173 133 155 c 1
 182 -302 l 1
 182 -315 184 -325 184 -333 c 0
 184 -357 175 -369 117 -402 c 1
 108 -402 105 -399 105 -390 c 2
 64 108 l 1
294 165 m 0
 294 96 329 29 403 29 c 0
 419 29 437 32 457 39 c 1
 457 59 454 82 449 112 c 2
 430 220 l 1
 392 220 345 217 299 210 c 1
 296 195 294 180 294 165 c 0
EndSplineSet
Colour: ffda6b
EndChar

StartChar: _.mim.medi
Encoding: 65586 -1 50
GlifName: _.mim.medi
Width: 657
VWidth: 1304
GlyphClass: 1
UnlinkRmOvrlpSave: 1
Flags: HMW
LayerCount: 2
Fore
SplineSet
-50 50 m 0
 -50 76 -25 100 0 100 c 0
 160 100 171 209 231 300 c 0
 252 331 270 343 289 343 c 0
 372 343 450 100 657 100 c 1
 657 -0 l 1
 586 0 526 25 477 61 c 1
 426 -13 381 -41 336 -41 c 0
 282 -41 228 -1 157 56 c 1
 127 23 84 0 0 -0 c 0
 -25 0 -50 24 -50 50 c 0
206 139 m 1
 267 90 310 60 349 60 c 0
 375 60 399 73 426 103 c 1
 358 166 313 236 279 236 c 0
 271 236 265 233 258 225 c 0
 235 198 220 169 206 139 c 1
EndSplineSet
Colour: ffda6b
EndChar

StartChar: _.mim.init
Encoding: 65587 -1 51
GlifName: _.mim.init
Width: 563
VWidth: 1304
GlyphClass: 1
UnlinkRmOvrlpSave: 1
Flags: HMW
LayerCount: 2
Fore
SplineSet
499 148 m 0
 499 71 464 0 385 -0 c 0
 384 0 383 0 382 -0 c 0
 312 0 221 42 179 71 c 1
 146 25 100 0 0 -0 c 0
 -25 0 -50 24 -50 50 c 0
 -50 76 -25 100 0 100 c 0
 164 100 159 159 248 317 c 0
 272 361 303 379 335 379 c 0
 414 379 499 266 499 148 c 0
229 161 m 1
 281 122 337 101 388 101 c 0
 405 101 422 103 438 108 c 1
 419 196 352 263 307 263 c 0
 294 263 283 257 275 245 c 0
 257 214 243 186 229 161 c 1
EndSplineSet
Colour: ffda6b
EndChar

StartChar: _.nun.isol
Encoding: 65588 -1 52
GlifName: _.nun.isol
Width: 767
VWidth: 1305
GlyphClass: 1
UnlinkRmOvrlpSave: 1
Flags: HMW
LayerCount: 2
Fore
SplineSet
64 -56 m 0
 64 16 82 106 125 220 c 0
 129 230 138 235 147 231 c 2
 177 220 l 2
 184 218 189 207 184 196 c 0
 150 111 134 39 134 -19 c 0
 134 -140 203 -201 316 -201 c 0
 421 -201 555 -140 625 -65 c 1
 626 -59 627 -53 627 -45 c 0
 627 16 589 143 567 208 c 0
 562 224 566 232 577 241 c 2
 624 282 l 2
 630 287 638 288 642 278 c 0
 669 201 703 91 703 17 c 0
 703 8 702 -1 701 -9 c 0
 681 -160 500 -300 317 -301 c 0
 184 -301 64 -241 64 -56 c 0
EndSplineSet
Colour: ffda6b
EndChar

StartChar: _.nun.fina
Encoding: 65589 -1 53
GlifName: _.nun.fina
Width: 856
VWidth: 1413
GlyphClass: 1
UnlinkRmOvrlpSave: 1
Flags: HMW
LayerCount: 2
Fore
SplineSet
64 -56 m 0
 64 16 82 106 125 220 c 0
 129 230 138 235 147 231 c 2
 177 220 l 2
 184 218 189 207 184 196 c 0
 150 111 134 39 134 -19 c 0
 134 -140 203 -201 316 -201 c 0
 421 -201 555 -140 625 -65 c 1
 626 -59 627 -53 627 -45 c 0
 627 16 589 143 567 208 c 0
 562 224 566 232 577 241 c 2
 624 282 l 2
 630 287 638 288 642 278 c 0
 659 224 683 131 733 119 c 0
 766 109 806 100 856 100 c 1
 856 -0 l 1
 787 0 744 10 712 27 c 0
 708 28 706 31 702 32 c 1
 702 28 703 23 703 19 c 0
 703 9 702 0 701 -9 c 0
 681 -160 500 -300 317 -301 c 0
 184 -301 64 -241 64 -56 c 0
EndSplineSet
Colour: ffda6b
EndChar

StartChar: _.vav.isol
Encoding: 65590 -1 54
GlifName: _.vav.isol
Width: 507
VWidth: 1304
GlyphClass: 1
UnlinkRmOvrlpSave: 1
Flags: HMW
LayerCount: 2
Fore
SplineSet
270 381 m 0
 387 381 443 192 443 55 c 0
 443 -115 273 -281 160 -301 c 1
 137 -301 64 -265 64 -241 c 0
 64 -238 66 -235 69 -232 c 1
 282 -154 357 -48 364 18 c 1
 364 21 l 1
 331 6 298 0 262 -0 c 0
 162 0 120 58 120 122 c 0
 120 210 165 381 270 381 c 0
176 155 m 0
 176 101 226 100 262 100 c 2
 267 100 l 2
 295 100 329 108 357 122 c 1
 342 208 303 280 254 280 c 0
 218 280 192 224 178 178 c 0
 176 169 176 162 176 155 c 0
EndSplineSet
Colour: ffda6b
EndChar

StartChar: _.vav.fina
Encoding: 65591 -1 55
GlifName: _.vav.fina
Width: 593
VWidth: 1304
GlyphClass: 1
UnlinkRmOvrlpSave: 1
Flags: HMW
LayerCount: 2
Fore
SplineSet
119 122 m 0
 119 210 165 381 270 381 c 0
 377 381 430 224 439 100 c 1
 593 100 l 1
 593 -0 l 1
 437 -0 l 1
 406 -149 260 -284 160 -301 c 1
 137 -301 64 -265 64 -241 c 0
 64 -238 66 -235 69 -232 c 1
 264 -162 343 -66 361 -0 c 1
 262 -0 l 2
 161 0 119 58 119 122 c 0
176 155 m 0
 176 101 226 100 262 100 c 2
 361 100 l 1
 349 196 308 280 254 280 c 0
 218 280 192 224 178 178 c 0
 176 169 176 162 176 155 c 0
EndSplineSet
Colour: ffda6b
EndChar

StartChar: _.dal.isol
Encoding: 65592 -1 56
GlifName: _.dal.isol
Width: 515
VWidth: 1304
GlyphClass: 1
UnlinkRmOvrlpSave: 1
Flags: HMW
LayerCount: 2
Fore
SplineSet
64 140 m 2
 64 159 l 2
 64 170 70 180 84 180 c 2
 94 180 l 2
 106 180 113 170 113 160 c 0
 113 121 145 100 234 100 c 0
 303 100 353 121 387 146 c 1
 385 200 360 296 188 409 c 0
 181 414 180 420 182 432 c 1
 202 501 l 2
 203 505 210 513 220 507 c 0
 408 396 451 257 451 200 c 2
 451 186 l 2
 451 183 451 180 451 177 c 0
 451 51 351 0 233 -0 c 0
 64 0 64 60 64 140 c 2
EndSplineSet
Colour: ffda6b
EndChar

StartChar: _.dal.fina
Encoding: 65593 -1 57
GlifName: _.dal.fina
Width: 607
VWidth: 1304
GlyphClass: 1
UnlinkRmOvrlpSave: 1
Flags: HMW
LayerCount: 2
Fore
SplineSet
64 140 m 2
 64 159 l 2
 64 170 71 180 85 180 c 2
 95 180 l 2
 107 180 114 170 114 160 c 0
 114 121 145 100 235 100 c 0
 299 100 346 119 380 141 c 1
 292 454 l 2
 288 468 293 471 303 477 c 2
 353 505 l 1
 362 511 369 507 371 496 c 2
 448 215 l 2
 475 115 510 100 607 100 c 1
 607 -0 l 1
 525 0 463 14 419 71 c 1
 381 22 311 0 233 -0 c 0
 66 0 64 60 64 140 c 2
EndSplineSet
Colour: ffda6b
EndChar

StartChar: _.ree.isol
Encoding: 65594 -1 58
GlifName: _.ree.isol
Width: 506
VWidth: 1304
GlyphClass: 1
UnlinkRmOvrlpSave: 1
Flags: HMW
LayerCount: 2
Fore
SplineSet
64 -241 m 0
 64 -238 66 -235 69 -232 c 1
 293 -150 365 -36 365 29 c 0
 365 36 364 41 362 49 c 0
 351 106 321 187 304 235 c 0
 300 246 304 254 313 261 c 2
 355 298 l 2
 366 307 377 309 383 293 c 0
 405 231 432 159 439 90 c 0
 441 79 442 68 442 57 c 0
 442 53 442 49 442 45 c 0
 442 20 438 -3 431 -24 c 0
 392 -163 255 -285 160 -301 c 1
 137 -301 64 -265 64 -241 c 0
EndSplineSet
Colour: ffda6b
EndChar

StartChar: _.ree.fina
Encoding: 65595 -1 59
GlifName: _.ree.fina
Width: 602
VWidth: 1304
GlyphClass: 1
UnlinkRmOvrlpSave: 1
Flags: HMW
LayerCount: 2
Fore
SplineSet
602 -0 m 1
 521 0 484 15 442 36 c 1
 441 15 437 -6 431 -24 c 0
 392 -163 255 -285 160 -301 c 1
 137 -301 64 -265 64 -241 c 0
 64 -238 66 -235 69 -232 c 1
 293 -150 365 -36 365 29 c 0
 365 36 364 41 362 49 c 0
 351 106 321 187 304 235 c 0
 300 246 304 254 313 261 c 2
 355 298 l 2
 366 307 377 309 383 293 c 0
 393 266 403 238 412 207 c 0
 427 166 448 128 480 119 c 0
 513 109 553 100 602 100 c 1
 602 -0 l 1
EndSplineSet
Colour: ffda6b
EndChar

StartChar: _.he8.isol
Encoding: 65596 -1 60
GlifName: _.he8.isol
Width: 471
VWidth: 1304
GlyphClass: 1
UnlinkRmOvrlpSave: 1
Flags: HMW
LayerCount: 2
Fore
SplineSet
64 142 m 0
 64 190 80 243 103 289 c 2
 152 389 l 1
 145 395 137 401 130 407 c 0
 125 411 124 421 128 426 c 2
 164 489 l 2
 166 494 173 501 180 495 c 2
 196 480 l 1
 403 303 407 225 407 171 c 0
 407 169 407 166 407 164 c 0
 407 88 380 1 229 -0 c 1
 106 1 64 65 64 142 c 0
119 165 m 0
 119 129 144 101 228 100 c 0
 318 101 354 120 354 154 c 0
 354 201 284 273 194 352 c 1
 144 247 l 2
 132 221 119 191 119 165 c 0
EndSplineSet
Colour: ffda6b
EndChar

StartChar: _.he8.fina
Encoding: 65597 -1 61
GlifName: _.he8.fina
Width: 526
VWidth: 1304
GlyphClass: 1
UnlinkRmOvrlpSave: 1
Flags: HMW
LayerCount: 2
Fore
SplineSet
64 220 m 0
 64 259 81 303 110 337 c 0
 138 369 176 389 270 457 c 1
 265 500 l 2
 264 507 267 516 272 521 c 2
 326 566 l 2
 330 570 341 566 341 560 c 2
 384 200 l 1
 391 158 386 100 526 100 c 1
 526 -0 l 1
 405 0 328 41 313 122 c 1
 287 112 251 106 214 106 c 0
 194 106 174 108 155 112 c 0
 91 125 64 169 64 220 c 0
134 247 m 0
 134 219 174 214 213 214 c 0
 243 214 275 217 299 223 c 1
 281 374 l 1
 227 340 177 301 155 283 c 0
 142 272 134 259 134 247 c 0
EndSplineSet
Colour: ffda6b
EndChar

StartChar: _.he8.medi
Encoding: 65598 -1 62
GlifName: _.he8.medi
Width: 497
VWidth: 1304
GlyphClass: 1
UnlinkRmOvrlpSave: 1
Flags: HMW
LayerCount: 2
Fore
SplineSet
-50 50 m 0
 -49 75 -27 99 -2 100 c 0
 23 100 47 100 72 101 c 1
 71 112 71 124 71 135 c 0
 71 310 158 471 220 471 c 0
 247 471 297 409 308 393 c 0
 333 356 345 315 345 274 c 0
 345 167 266 60 154 18 c 1
 175 -28 214 -72 273 -110 c 1
 265 -89 260 -68 260 -47 c 0
 260 29 315 100 423 100 c 2
 497 100 l 1
 497 -0 l 1
 398 -0 l 2
 354 0 331 -34 331 -73 c 0
 331 -106 348 -143 385 -164 c 0
 396 -169 407 -172 421 -177 c 0
 431 -179 434 -182 428 -191 c 2
 389 -253 l 2
 387 -258 379 -263 369 -261 c 0
 205 -212 122 -111 89 2 c 1
 77 1 64 0 52 -0 c 2
 -2 -0 l 1
 -27 1 -50 24 -50 50 c 0
130 133 m 0
 130 124 130 115 131 106 c 1
 252 124 292 181 292 235 c 0
 292 275 270 315 243 336 c 0
 233 344 227 349 222 349 c 0
 200 349 130 250 130 133 c 0
EndSplineSet
Colour: ffda6b
EndChar

StartChar: _.he8.init
Encoding: 65599 -1 63
GlifName: _.he8.init
Width: 574
VWidth: 1304
GlyphClass: 1
UnlinkRmOvrlpSave: 1
Flags: HMW
LayerCount: 2
Fore
SplineSet
-50 49 m 0
 -50 75 -27 99 -3 100 c 0
 40 100 82 108 120 122 c 1
 83 145 64 174 64 221 c 0
 64 238 67 258 72 280 c 0
 81 322 95 368 120 404 c 1
 124 516 l 1
 171 494 211 474 247 454 c 0
 253 452 259 449 264 444 c 0
 428 355 485 291 505 209 c 0
 508 196 510 182 510 167 c 0
 510 133 502 96 487 64 c 1
 469 18 443 0 410 0 c 0
 383 0 351 12 318 28 c 2
 220 74 l 1
 160 28 79 0 -1 -0 c 1
 -24 1 -50 24 -50 49 c 0
120 256 m 0
 120 231 143 214 180 197 c 1
 225 178 l 1
 257 201 277 227 279 244 c 0
 279 283 248 359 208 359 c 0
 207 359 l 0
 175 359 141 318 124 274 c 0
 121 267 120 262 120 256 c 0
291 149 m 1
 358 120 l 2
 393 105 417 92 436 92 c 0
 440 92 443 92 447 93 c 1
 449 104 450 115 450 125 c 0
 450 199 398 254 327 300 c 1
 328 289 328 278 328 269 c 0
 328 226 314 186 291 149 c 1
EndSplineSet
Colour: ffda6b
EndChar

StartChar: _.yeh.fina
Encoding: 65600 -1 64
GlifName: _.yeh.fina
Width: 761
VWidth: 1304
GlyphClass: 1
UnlinkRmOvrlpSave: 1
Flags: HMW
LayerCount: 2
Fore
SplineSet
64 -56 m 0
 64 16 82 106 125 220 c 0
 129 230 138 235 147 231 c 2
 177 220 l 2
 184 218 189 207 184 196 c 0
 150 111 134 39 134 -19 c 0
 134 -140 203 -201 315 -201 c 0
 421 -201 555 -140 624 -65 c 0
 628 -60 629 -56 629 -51 c 0
 629 -10 502 24 427 54 c 0
 415 59 419 70 424 80 c 1
 435 111 l 1
 448 143 454 155 469 155 c 0
 473 155 478 154 483 152 c 0
 610 113 660 100 761 100 c 1
 761 -0 l 1
 739 0 718 1 700 2 c 1
 701 -2 701 -5 701 -9 c 0
 681 -160 501 -300 316 -301 c 0
 184 -301 64 -240 64 -56 c 0
EndSplineSet
Colour: ffda6b
EndChar

StartChar: _.yeh.isol
Encoding: 65601 -1 65
GlifName: _.yeh.isol
Width: 768
VWidth: 1304
GlyphClass: 1
UnlinkRmOvrlpSave: 1
Flags: HMW
LayerCount: 2
Fore
SplineSet
64 -56 m 0
 64 16 82 106 125 220 c 0
 129 230 138 235 147 231 c 2
 177 220 l 2
 184 218 189 207 184 196 c 0
 150 111 134 39 134 -19 c 0
 134 -140 203 -201 316 -201 c 0
 405 -201 514 -158 587 -99 c 1
 615 -70 628 -47 628 -31 c 0
 628 -11 607 0 573 -0 c 2
 475 -0 l 2
 382 0 346 35 346 92 c 0
 346 121 355 154 370 192 c 0
 402 273 502 407 603 407 c 0
 630 407 669 394 681 373 c 0
 685 366 688 356 688 344 c 0
 688 311 673 266 657 266 c 0
 653 266 649 269 645 277 c 1
 633 294 616 301 597 301 c 0
 533 301 445 220 420 159 c 0
 416 149 414 139 414 131 c 0
 414 111 431 100 493 100 c 2
 597 100 l 2
 661 100 704 62 704 12 c 0
 704 5 703 -2 701 -9 c 0
 681 -160 500 -300 317 -301 c 0
 184 -301 64 -241 64 -56 c 0
EndSplineSet
Colour: ffda6b
EndChar

StartChar: _.hamze.isol
Encoding: 65602 -1 66
GlifName: _.hamze.isol
Width: 515
VWidth: 1304
GlyphClass: 2
Flags: HMW
LayerCount: 2
Fore
SplineSet
312 339 m 0
 243 339 167 301 167 258 c 0
 167 216 207 179 246 157 c 1
 419 239 l 1
 451 170 l 1
 96 5 l 1
 64 74 l 1
 169 123 l 1
 118 158 103 201 103 243 c 0
 103 255 104 267 106 279 c 0
 118 348 178 418 292 418 c 0
 313 418 335 416 359 411 c 1
 343 336 l 1
 333 338 323 339 312 339 c 0
EndSplineSet
Colour: ffda6b
EndChar

StartChar: _.keshide.medi
Encoding: 65603 -1 67
GlifName: _.keshide.medi
Width: 235
VWidth: 1304
GlyphClass: 2
Flags: HMW
LayerCount: 2
Fore
SplineSet
-12 100 m 2
 235 100 l 1
 235 0 l 1
 -12 0 l 2
 -24 0 -33 5 -40 15 c 0
 -47 25 -50 37 -50 50 c 0
 -50 63 -47 75 -40 85 c 0
 -33 95 -24 100 -12 100 c 2
EndSplineSet
Colour: ffda6b
EndChar

StartChar: _.dot.1u
Encoding: 65604 -1 68
GlifName: _.dot.1u
Width: 0
VWidth: 1304
GlyphClass: 2
Flags: HMW
LayerCount: 2
Fore
SplineSet
4 54 m 2
 49 113 l 2
 55 120 66 122 75 116 c 2
 132 72 l 2
 141 66 142 54 136 45 c 2
 92 -12 l 2
 86 -21 73 -22 66 -16 c 2
 7 28 l 2
 0 34 -3 45 4 54 c 2
EndSplineSet
Colour: ffda6b
EndChar

StartChar: _.dot.2u
Encoding: 65605 -1 69
GlifName: _.dot.2u
Width: 0
VWidth: 1304
GlyphClass: 2
UnlinkRmOvrlpSave: 1
Flags: HMW
LayerCount: 2
Fore
SplineSet
3 68 m 2
 45 122 l 2
 51 131 62 131 69 125 c 2
 124 85 l 2
 131 79 132 67 126 60 c 2
 85 6 l 2
 79 -1 68 -4 61 2 c 2
 7 43 l 2
 0 49 -2 61 3 68 c 2
164 68 m 2
 205 122 l 2
 211 131 222 131 229 125 c 2
 284 85 l 2
 291 79 292 67 286 60 c 2
 245 6 l 2
 239 -1 228 -4 221 2 c 2
 167 43 l 2
 160 49 158 61 164 68 c 2
EndSplineSet
Colour: ffda6b
EndChar

StartChar: _.dot.3u
Encoding: 65606 -1 70
GlifName: _.dot.3u
Width: 0
VWidth: 1304
GlyphClass: 2
UnlinkRmOvrlpSave: 1
Flags: HMW
LayerCount: 2
Fore
SplineSet
3 68 m 2
 45 122 l 2
 51 131 62 131 69 125 c 2
 124 85 l 2
 131 79 132 67 126 60 c 2
 85 6 l 2
 79 -1 68 -4 61 2 c 2
 7 43 l 2
 0 49 -2 61 3 68 c 2
81 207 m 2
 119 257 l 1
 125 263 135 265 142 260 c 2
 191 221 l 2
 198 216 200 206 194 199 c 2
 156 149 l 2
 151 143 140 141 133 146 c 2
 84 183 l 2
 77 189 76 200 81 207 c 2
164 68 m 2
 205 122 l 2
 211 131 222 131 229 125 c 2
 284 85 l 2
 291 79 292 67 286 60 c 2
 245 6 l 2
 239 -1 228 -4 221 2 c 2
 167 43 l 2
 160 49 158 61 164 68 c 2
EndSplineSet
Colour: ffda6b
EndChar

StartChar: _.dot.1d
Encoding: 65607 -1 71
GlifName: _.dot.1d
Width: 0
VWidth: 1304
GlyphClass: 2
Flags: HMW
LayerCount: 2
Fore
SplineSet
4 -67 m 2
 48 -8 l 2
 54 1 67 2 74 -4 c 2
 132 -48 l 2
 141 -54 142 -65 136 -74 c 2
 91 -133 l 2
 85 -140 72 -143 65 -137 c 2
 8 -93 l 2
 -1 -87 -2 -74 4 -67 c 2
EndSplineSet
Colour: ffda6b
EndChar

StartChar: _.dot.2d
Encoding: 65608 -1 72
GlifName: _.dot.2d
Width: 0
VWidth: 1304
GlyphClass: 2
UnlinkRmOvrlpSave: 1
Flags: HMW
LayerCount: 2
Fore
SplineSet
3 -62 m 2
 45 -8 l 2
 51 1 62 2 69 -4 c 2
 124 -45 l 2
 131 -51 132 -62 126 -69 c 2
 85 -123 l 2
 79 -130 68 -133 61 -127 c 2
 7 -86 l 2
 0 -80 -2 -69 3 -62 c 2
164 -62 m 2
 205 -8 l 2
 211 1 222 2 229 -4 c 2
 284 -45 l 2
 291 -51 292 -62 286 -69 c 2
 245 -123 l 2
 239 -130 228 -133 221 -127 c 2
 167 -86 l 2
 160 -80 158 -69 164 -62 c 2
EndSplineSet
Colour: ffda6b
EndChar

StartChar: _.dot.3d
Encoding: 65609 -1 73
GlifName: _.dot.3d
Width: 0
VWidth: 1304
GlyphClass: 2
UnlinkRmOvrlpSave: 1
Flags: HMW
LayerCount: 2
Fore
SplineSet
3 -62 m 2
 45 -8 l 2
 51 1 62 2 69 -4 c 2
 124 -45 l 2
 131 -51 132 -62 126 -69 c 2
 85 -123 l 2
 79 -130 68 -133 61 -127 c 2
 7 -86 l 2
 0 -80 -2 -69 3 -62 c 2
90 -203 m 2
 129 -153 l 2
 135 -146 145 -144 152 -149 c 2
 201 -187 l 2
 208 -192 210 -202 205 -209 c 2
 167 -260 l 2
 161 -267 150 -269 143 -264 c 2
 94 -225 l 2
 87 -220 85 -209 90 -203 c 2
164 -62 m 2
 205 -8 l 2
 211 1 222 2 229 -4 c 2
 284 -45 l 2
 291 -51 292 -62 286 -69 c 2
 245 -123 l 2
 239 -130 228 -133 221 -127 c 2
 167 -86 l 2
 160 -80 158 -69 164 -62 c 2
EndSplineSet
Colour: ffda6b
EndChar

StartChar: _.num.0
Encoding: 65611 -1 75
GlifName: _.num.0
Width: 395
VWidth: 1424
GlyphClass: 2
Flags: HMW
LayerCount: 2
Fore
SplineSet
204 167 m 0
 116 167 75 242 75 316 c 0
 75 392 118 468 199 468 c 0
 278 468 320 387 320 310 c 0
 320 237 283 167 204 167 c 0
146 317 m 0
 146 285 163 252 198 252 c 0
 233 252 250 284 250 316 c 0
 250 349 232 382 198 383 c 0
 164 383 146 350 146 317 c 0
EndSplineSet
Colour: ffda6b
EndChar

StartChar: _.num.1
Encoding: 65612 -1 76
GlifName: _.num.1
Width: 347
VWidth: 1331
GlyphClass: 2
Flags: HMW
LayerCount: 2
Fore
SplineSet
78 683 m 0
 71 695 77 706 86 716 c 2
 142 784 l 2
 151 794 161 785 163 780 c 0
 259 554 272 418 272 226 c 0
 272 163 270 95 270 15 c 0
 270 6 266 0 256 -4 c 2
 217 -19 l 1
 196 -29 191 -14 192 -3 c 0
 191 240 188 440 78 683 c 0
EndSplineSet
Colour: ffda6b
EndChar

StartChar: _.num.2
Encoding: 65613 -1 77
GlifName: _.num.2
Width: 633
VWidth: 1331
GlyphClass: 2
Flags: HMW
LayerCount: 2
Fore
SplineSet
220 634 m 1
 249 571 293 519 382 519 c 0
 451 519 470 552 470 593 c 0
 470 631 453 677 441 714 c 0
 437 726 442 732 448 736 c 2
 498 769 l 2
 507 774 515 780 519 766 c 0
 546 695 558 635 558 586 c 0
 558 459 478 400 371 400 c 0
 333 400 295 411 262 433 c 1
 270 367 272 300 272 225 c 0
 272 162 270 94 270 15 c 0
 270 6 266 0 256 -4 c 2
 217 -19 l 1
 196 -29 191 -14 192 -3 c 0
 191 240 188 440 78 683 c 0
 71 695 77 706 86 716 c 2
 142 784 l 2
 151 794 161 785 163 780 c 0
 186 725 205 676 220 629 c 1
 220 634 l 1
EndSplineSet
Colour: ffda6b
EndChar

StartChar: _.num.3
Encoding: 65614 -1 78
GlifName: _.num.3
Width: 822
VWidth: 1331
GlyphClass: 2
Flags: HMW
LayerCount: 2
Fore
SplineSet
78 683 m 0
 71 695 77 706 86 716 c 2
 142 784 l 2
 151 794 161 785 163 780 c 0
 189 718 209 665 225 613 c 0
 245 558 269 519 338 519 c 0
 339 519 341 519 342 519 c 0
 410 519 430 551 430 592 c 0
 430 630 413 677 401 714 c 0
 397 726 401 732 408 736 c 2
 459 769 l 2
 466 774 475 780 480 766 c 0
 506 699 517 640 517 592 c 0
 517 579 516 566 514 554 c 1
 530 548 547 545 568 545 c 0
 569 545 569 545 570 545 c 0
 639 545 660 578 660 619 c 0
 660 657 643 703 631 740 c 0
 627 752 631 758 638 763 c 2
 689 795 l 2
 696 800 705 805 710 791 c 0
 736 723 747 665 747 617 c 0
 747 487 665 427 563 427 c 0
 562 427 562 427 561 427 c 0
 529 427 496 434 466 450 c 1
 433 417 385 400 332 400 c 0
 309 400 286 405 264 412 c 1
 270 354 272 296 272 232 c 0
 272 168 270 97 270 15 c 0
 270 6 266 0 256 -4 c 2
 217 -19 l 1
 196 -29 191 -14 192 -3 c 0
 191 240 188 440 78 683 c 0
EndSplineSet
Colour: ffda6b
EndChar

StartChar: _.num.4.fa
Encoding: 65615 -1 79
GlifName: _.num.4.fa
Width: 731
VWidth: 1331
GlyphClass: 2
Flags: HMW
LayerCount: 2
Fore
SplineSet
78 683 m 0
 71 695 77 706 86 716 c 2
 142 784 l 2
 151 794 161 785 163 780 c 0
 217 652 244 554 259 458 c 1
 271 452 285 447 299 442 c 1
 274 491 262 541 262 580 c 0
 262 689 323 797 468 797 c 0
 510 797 559 788 615 767 c 0
 629 763 623 755 619 746 c 2
 597 684 l 2
 595 677 586 674 574 678 c 0
 552 685 528 688 503 688 c 0
 427 688 350 655 349 582 c 0
 349 516 387 466 435 429 c 1
 497 434 557 452 606 469 c 0
 610 470 614 470 617 470 c 0
 632 470 643 461 645 452 c 2
 656 405 l 2
 656 403 656 400 656 398 c 0
 656 386 651 374 635 369 c 0
 554 341 474 329 403 329 c 0
 354 329 309 335 269 346 c 1
 271 308 272 269 272 227 c 0
 272 164 270 95 270 15 c 0
 270 6 266 0 256 -4 c 2
 217 -19 l 1
 196 -29 191 -14 192 -3 c 0
 191 240 188 440 78 683 c 0
EndSplineSet
Colour: ffda6b
EndChar

StartChar: _.num.5.fa
Encoding: 65617 -1 81
GlifName: _.num.5.fa
Width: 742
VWidth: 1331
GlyphClass: 2
Flags: HMW
LayerCount: 2
Fore
SplineSet
227 -7 m 0
 146 -7 75 54 75 162 c 0
 75 206 89 385 291 652 c 1
 315 634 l 1
 287 657 256 680 222 703 c 1
 283 800 l 1
 283 800 657 575 667 188 c 1
 667 188 671 7 539 -0 c 0
 525 0 510 -2 493 -2 c 0
 446 -2 393 9 366 80 c 1
 335 21 280 -7 227 -7 c 0
509 129 m 0
 544 129 570 146 570 185 c 0
 570 225 559 404 365 589 c 1
 227 400 182 276 182 204 c 0
 182 147 210 122 241 122 c 0
 282 122 329 166 329 238 c 0
 329 242 329 247 329 251 c 1
 414 273 l 1
 414 273 414 271 414 268 c 0
 414 256 414 225 421 191 c 0
 430 151 472 129 509 129 c 0
EndSplineSet
Colour: ffda6b
EndChar

StartChar: _.num.6.fa
Encoding: 65619 -1 83
GlifName: _.num.6.fa
Width: 774
VWidth: 1331
GlyphClass: 2
Flags: HMW
LayerCount: 2
Fore
SplineSet
79 1 m 2
 74 11 74 18 80 24 c 0
 197 151 276 242 368 321 c 1
 288 387 246 481 246 568 c 0
 246 691 330 800 511 800 c 0
 546 800 586 795 629 786 c 1
 644 787 642 778 640 768 c 2
 626 699 l 2
 625 692 620 684 608 686 c 0
 578 690 550 692 526 692 c 0
 395 692 344 634 344 566 c 0
 344 502 389 429 454 386 c 1
 516 428 588 467 682 509 c 0
 687 511 700 510 699 498 c 2
 695 410 l 2
 694 396 690 385 678 381 c 0
 432 279 291 135 125 -42 c 0
 119 -51 105 -57 95 -36 c 2
 79 1 l 2
EndSplineSet
Colour: ffda6b
EndChar

StartChar: _.num.7
Encoding: 65621 -1 85
GlifName: _.num.7
Width: 682
VWidth: 1331
GlyphClass: 2
Flags: HMW
LayerCount: 2
Fore
SplineSet
81 654 m 0
 71 664 75 675 81 687 c 2
 123 764 l 2
 129 775 142 769 144 764 c 0
 249 615 308 386 341 247 c 1
 374 386 433 615 538 764 c 0
 540 769 553 775 559 764 c 2
 601 687 l 2
 607 675 611 664 601 654 c 0
 495 500 381 160 381 21 c 0
 381 6 376 1 365 -4 c 2
 330 -19 l 2
 325 -21 321 -21 317 -21 c 0
 308 -21 301 -15 301 -1 c 0
 299 192 184 496 81 654 c 0
EndSplineSet
Colour: ffda6b
EndChar

StartChar: _.num.8
Encoding: 65622 -1 86
GlifName: _.num.8
Width: 682
VWidth: 1331
GlyphClass: 2
Flags: HMW
LayerCount: 2
Fore
SplineSet
81 63 m 2
 75 74 71 86 81 96 c 0
 184 254 299 558 301 750 c 0
 301 765 308 771 317 771 c 0
 321 771 325 770 330 768 c 2
 365 753 l 2
 376 748 381 744 381 729 c 0
 381 590 495 249 601 96 c 0
 611 86 607 74 601 63 c 2
 559 -15 l 2
 553 -26 540 -20 538 -16 c 0
 433 134 374 363 341 502 c 1
 308 363 249 134 144 -16 c 0
 142 -20 129 -26 123 -15 c 2
 81 63 l 2
EndSplineSet
Colour: ffda6b
EndChar

StartChar: _.num.9
Encoding: 65623 -1 87
GlifName: _.num.9
Width: 630
VWidth: 1331
GlyphClass: 2
Flags: HMW
LayerCount: 2
Fore
SplineSet
75 535 m 0
 75 658 172 800 270 800 c 0
 418 800 441 574 451 445 c 0
 463 324 492 205 552 72 c 0
 559 61 553 50 544 40 c 2
 488 -27 l 2
 479 -37 469 -29 467 -24 c 0
 401 130 374 242 363 359 c 1
 351 359 l 1
 329 356 309 355 290 355 c 0
 133 355 75 440 75 535 c 0
152 548 m 0
 152 502 187 462 289 462 c 0
 308 462 330 463 355 466 c 1
 355 471 355 477 355 482 c 0
 355 602 302 678 255 679 c 0
 212 679 152 609 152 548 c 0
EndSplineSet
Colour: ffda6b
EndChar

StartChar: _.sing.backslash
Encoding: 65624 -1 88
GlifName: _.sing.backslash
Width: 442
VWidth: 1197
GlyphClass: 2
Flags: HMW
LayerCount: 2
Fore
SplineSet
50 720 m 1
 151 720 l 1
 392 -14 l 1
 290 -14 l 1
 50 720 l 1
EndSplineSet
Colour: ffda6b
EndChar

StartChar: _.sing.slash
Encoding: 65625 -1 89
GlifName: _.sing.slash
Width: 442
VWidth: 1197
GlyphClass: 2
Flags: HMW
LayerCount: 2
Fore
SplineSet
50 -14 m 1
 290 720 l 1
 392 720 l 1
 151 -14 l 1
 50 -14 l 1
EndSplineSet
Colour: ffda6b
EndChar

StartChar: _.sing.tajob
Encoding: 65626 -1 90
GlifName: _.sing.tajob
Width: 255
VWidth: 1197
GlyphClass: 2
Flags: HMW
LayerCount: 2
Fore
SplineSet
50 81 m 1
 128 159 l 1
 205 81 l 1
 128 5 l 1
 50 81 l 1
77 756 m 1
 177 756 l 1
 161 220 l 1
 94 220 l 1
 77 756 l 1
EndSplineSet
Colour: ffda6b
EndChar

StartChar: _.sing.soal
Encoding: 65627 -1 91
GlifName: _.sing.soal
Width: 460
VWidth: 1304
GlyphClass: 2
Flags: HMW
LayerCount: 2
Fore
SplineSet
229 759 m 0
 294 759 340 740 368 701 c 0
 396 662 410 607 410 535 c 2
 410 503 l 1
 333 503 l 1
 333 535 l 2
 333 630 298 677 229 677 c 0
 190 677 160 657 139 617 c 0
 133 603 130 589 130 575 c 0
 130 548 142 519 166 487 c 0
 171 480 178 472 187 460 c 0
 196 448 204 436 212 426 c 0
 220 416 227 406 232 396 c 0
 256 351 268 304 268 255 c 2
 268 215 l 1
 202 215 l 1
 202 242 l 2
 202 300 177 356 127 410 c 0
 123 415 116 424 108 434 c 0
 100 444 94 452 90 457 c 0
 63 495 50 533 50 570 c 2
 50 579 l 2
 50 626 66 667 98 702 c 0
 129 740 173 759 229 759 c 0
157 77 m 1
 235 155 l 1
 312 77 l 1
 235 -0 l 1
 157 77 l 1
EndSplineSet
Colour: ffda6b
EndChar

StartChar: _.sing.beezafeh
Encoding: 65628 -1 92
GlifName: _.sing.beezafeh
Width: 494
VWidth: 1352
GlyphClass: 2
Flags: HMW
LayerCount: 2
Fore
SplineSet
50 263 m 1
 50 335 l 1
 211 335 l 1
 211 495 l 1
 283 495 l 1
 283 335 l 1
 444 335 l 1
 444 263 l 1
 283 263 l 1
 283 103 l 1
 211 103 l 1
 211 263 l 1
 50 263 l 1
EndSplineSet
Colour: ffda6b
EndChar

StartChar: _.sing.menha
Encoding: 65629 -1 93
GlifName: _.sing.menha
Width: 500
VWidth: 0
GlyphClass: 2
Flags: HMW
LayerCount: 2
Fore
SplineSet
50 200 m 1
 50 300 l 1
 450 300 l 1
 450 200 l 1
 50 200 l 1
EndSplineSet
Colour: ffda6b
EndChar

StartChar: _.sing.virgul
Encoding: 65631 -1 95
GlifName: _.sing.virgul
Width: 258
VWidth: 1197
GlyphClass: 2
Flags: HMW
LayerCount: 2
Fore
SplineSet
130 103 m 1
 127 106 120 112 109 122 c 0
 98 132 90 141 86 146 c 0
 82 151 75 159 68 169 c 0
 61 179 57 189 54 200 c 0
 51 211 50 223 50 236 c 0
 51 264 61 294 80 326 c 0
 96 355 118 383 147 410 c 1
 195 362 l 1
 192 360 186 353 176 341 c 0
 149 314 136 290 136 269 c 0
 136 262 138 256 141 250 c 0
 144 244 148 238 152 234 c 0
 156 230 160 226 167 220 c 0
 174 214 178 210 180 208 c 0
 183 205 187 201 194 195 c 0
 201 189 205 185 208 182 c 1
 130 103 l 1
EndSplineSet
Colour: ffda6b
EndChar

StartChar: _.sing.dot_virgul
Encoding: 65632 -1 96
GlifName: _.sing.dot_virgul
Width: 256
VWidth: 1304
GlyphClass: 2
Flags: HMW
LayerCount: 2
Fore
SplineSet
129 210 m 1
 126 213 119 220 108 230 c 0
 97 240 90 247 86 252 c 0
 82 257 75 265 68 275 c 0
 61 285 57 295 54 306 c 0
 51 317 50 330 50 343 c 0
 52 400 84 458 147 517 c 1
 194 469 l 1
 167 442 149 419 142 402 c 0
 138 395 136 388 136 380 c 0
 134 366 139 353 152 340 c 0
 165 329 183 312 206 289 c 1
 129 210 l 1
51 66 m 1
 129 144 l 1
 206 66 l 1
 129 -11 l 1
 51 66 l 1
EndSplineSet
Colour: ffda6b
EndChar

StartChar: _.sing.2noqte
Encoding: 65633 -1 97
GlifName: _.sing.2noqte
Width: 255
VWidth: 1352
GlyphClass: 2
Flags: HMW
LayerCount: 2
Fore
SplineSet
50 106 m 1
 128 183 l 1
 205 106 l 1
 128 29 l 1
 50 106 l 1
50 327 m 1
 128 406 l 1
 205 327 l 1
 128 250 l 1
 50 327 l 1
EndSplineSet
Colour: ffda6b
EndChar

StartChar: _.sing.noqte
Encoding: 65634 -1 98
GlifName: _.sing.noqte
Width: 254
VWidth: 1352
GlyphClass: 2
Flags: HMW
LayerCount: 2
Fore
SplineSet
50 136 m 1
 128 214 l 1
 204 136 l 1
 128 59 l 1
 50 136 l 1
EndSplineSet
Colour: ffda6b
EndChar

StartChar: _.sing.gheiomeh.right
Encoding: 65635 -1 99
GlifName: _.sing.gheiomeh.right
Width: 425
VWidth: 1352
GlyphClass: 2
Flags: HMW
LayerCount: 2
Fore
SplineSet
172 -48 m 1
 91 49 50 145 50 241 c 0
 50 291 61 340 82 389 c 0
 104 439 134 486 172 529 c 1
 226 484 l 1
 163 412 132 331 132 241 c 0
 132 152 163 71 226 -1 c 1
 172 -48 l 1
326 -40 m 1
 289 5 262 49 242 92 c 0
 222 135 212 185 212 241 c 0
 212 297 222 347 242 390 c 0
 262 433 290 477 326 521 c 1
 375 480 l 1
 346 444 323 407 308 370 c 0
 293 333 286 290 286 241 c 0
 286 152 316 72 375 2 c 1
 326 -40 l 1
EndSplineSet
Colour: ffda6b
EndChar

StartChar: _.sing.gheiomeh.left
Encoding: 65636 -1 100
GlifName: _.sing.gheiomeh.left
Width: 426
VWidth: 1352
GlyphClass: 2
Flags: HMW
LayerCount: 2
Fore
SplineSet
139 241 m 0
 139 290 131 333 116 370 c 0
 101 407 79 444 50 480 c 1
 99 521 l 1
 135 478 163 433 184 385 c 0
 204 339 214 291 214 241 c 0
 214 186 204 136 184 92 c 0
 164 48 136 5 99 -40 c 1
 50 2 l 1
 109 72 139 152 139 241 c 0
199 -3 m 1
 262 72 294 154 294 241 c 0
 294 282 286 323 270 364 c 0
 254 408 230 448 199 484 c 1
 253 529 l 1
 291 486 321 439 343 389 c 0
 365 341 376 292 376 241 c 0
 376 191 365 141 343 92 c 0
 322 45 292 -1 253 -48 c 1
 199 -3 l 1
EndSplineSet
Colour: ffda6b
EndChar

StartChar: _.sing.parantez.right
Encoding: 65637 -1 101
GlifName: _.sing.parantez.right
Width: 309
VWidth: 1352
GlyphClass: 2
Flags: HMW
LayerCount: 2
Fore
SplineSet
259 665 m 1
 220 608 189 551 167 494 c 0
 145 437 134 372 134 299 c 0
 134 172 176 51 259 -65 c 1
 201 -106 l 1
 138 -19 92 77 65 183 c 0
 55 221 50 260 50 299 c 0
 50 364 67 440 102 525 c 0
 130 590 163 650 201 705 c 1
 259 665 l 1
EndSplineSet
Colour: ffda6b
EndChar

StartChar: _.sing.parantez.left
Encoding: 65638 -1 102
GlifName: _.sing.parantez.left
Width: 309
VWidth: 1352
GlyphClass: 2
Flags: HMW
LayerCount: 2
Fore
SplineSet
176 299 m 0
 176 372 164 437 142 494 c 0
 120 551 89 608 50 665 c 1
 108 705 l 2
 109 704 116 694 129 673 c 0
 142 652 153 636 160 624 c 0
 200 553 228 483 245 416 c 0
 254 379 259 340 259 299 c 0
 259 230 242 155 208 74 c 0
 183 15 149 -45 108 -106 c 1
 50 -65 l 1
 111 20 150 108 167 199 c 0
 173 231 176 264 176 299 c 0
EndSplineSet
Colour: ffda6b
EndChar

StartChar: _.sing.koroshe.right
Encoding: 65641 -1 105
GlifName: _.sing.koroshe.right
Width: 276
VWidth: 1197
GlyphClass: 2
Flags: HMW
LayerCount: 2
Fore
SplineSet
50 -57 m 1
 50 795 l 1
 226 795 l 1
 226 725 l 1
 120 725 l 1
 120 13 l 1
 226 13 l 1
 226 -57 l 1
 50 -57 l 1
EndSplineSet
Colour: ffda6b
EndChar

StartChar: _.sing.koroshe.left
Encoding: 65642 -1 106
GlifName: _.sing.koroshe.left
Width: 276
VWidth: 1197
GlyphClass: 2
Flags: HMW
LayerCount: 2
Fore
SplineSet
50 13 m 1
 156 13 l 1
 156 725 l 1
 50 725 l 1
 50 795 l 1
 226 795 l 1
 226 -57 l 1
 50 -57 l 1
 50 13 l 1
EndSplineSet
Colour: ffda6b
EndChar

StartChar: _.sing.akolad.right
Encoding: 65643 -1 107
GlifName: _.sing.akolad.right
Width: 327
VWidth: 1197
GlyphClass: 2
Flags: HMW
LayerCount: 2
Fore
SplineSet
245 -125 m 2
 206 -125 177 -115 160 -96 c 0
 143 -77 133 -48 131 -9 c 0
 131 -2 130 10 130 26 c 0
 130 42 130 54 130 63 c 2
 130 132 l 1
 126 221 99 266 50 266 c 1
 50 336 l 1
 71 336 88 343 100 358 c 0
 112 373 120 390 123 407 c 0
 126 424 129 446 130 471 c 2
 130 540 l 2
 130 549 130 561 130 577 c 0
 130 593 131 605 131 612 c 0
 133 651 143 680 160 699 c 0
 177 718 206 727 245 727 c 2
 277 727 l 1
 277 657 l 1
 263 657 l 2
 240 657 223 651 213 640 c 0
 203 629 198 611 198 587 c 0
 197 566 196 546 196 528 c 0
 196 504 196 485 196 470 c 0
 196 455 194 436 191 415 c 0
 188 394 185 377 180 364 c 0
 175 351 168 338 159 326 c 0
 150 314 138 306 125 301 c 1
 142 295 155 285 165 270 c 0
 175 255 182 236 186 212 c 0
 190 188 193 168 194 149 c 0
 195 130 196 106 196 75 c 0
 196 57 197 37 198 16 c 0
 198 -8 203 -26 213 -37 c 0
 223 -48 240 -54 263 -54 c 2
 277 -54 l 1
 277 -125 l 1
 245 -125 l 2
EndSplineSet
Colour: ffda6b
EndChar

StartChar: _.sing.akolad.left
Encoding: 65644 -1 108
GlifName: _.sing.akolad.left
Width: 327
VWidth: 1197
GlyphClass: 2
Flags: HMW
LayerCount: 2
Fore
SplineSet
194 -9 m 0
 194 -86 157 -125 82 -125 c 2
 50 -125 l 1
 50 -54 l 1
 62 -54 l 2
 86 -54 103 -49 112 -38 c 0
 121 -27 127 -9 129 16 c 0
 129 21 130 30 130 43 c 0
 130 56 130 67 130 75 c 0
 130 100 130 120 130 134 c 0
 130 148 132 166 135 188 c 0
 138 210 141 226 146 239 c 0
 151 252 158 264 167 276 c 0
 176 288 188 296 201 301 c 1
 188 306 176 314 167 326 c 0
 158 338 151 350 146 363 c 0
 141 376 138 392 135 414 c 0
 132 436 130 454 130 468 c 0
 130 482 130 503 130 528 c 0
 130 536 130 547 130 560 c 0
 130 573 129 582 129 587 c 0
 127 612 121 630 112 641 c 0
 103 652 86 657 62 657 c 2
 50 657 l 1
 50 727 l 1
 82 727 l 2
 157 727 194 689 194 612 c 0
 195 597 195 573 195 540 c 0
 195 464 200 413 210 387 c 0
 223 353 245 336 277 336 c 1
 277 266 l 1
 240 266 216 243 205 197 c 0
 199 173 196 151 196 130 c 0
 195 115 195 92 195 63 c 0
 195 30 195 6 194 -9 c 0
EndSplineSet
Colour: ffda6b
EndChar

StartChar: _.mark.maad
Encoding: 65645 -1 109
GlifName: _.mark.maad
Width: 0
VWidth: 1352
GlyphClass: 2
Flags: HMW
LayerCount: 2
Fore
SplineSet
0 26 m 1
 32 92 l 2
 45 123 64 138 89 138 c 0
 95 138 101 137 107 135 c 0
 141 125 179 120 221 120 c 0
 244 120 264 121 282 124 c 0
 292 126 306 130 323 136 c 0
 340 142 352 146 359 148 c 1
 366 74 l 1
 324 59 298 51 288 50 c 0
 261 47 237 45 216 45 c 0
 167 45 124 52 86 65 c 1
 82 57 76 46 68 30 c 0
 60 14 56 4 54 0 c 1
 0 26 l 1
EndSplineSet
Colour: ffda6b
EndChar

StartChar: _.mark.fatheh
Encoding: 65646 -1 110
GlifName: _.mark.fatheh
Width: 0
VWidth: 2310
GlyphClass: 2
Flags: HMW
LayerCount: 2
Fore
SplineSet
0 45 m 1
 256 165 l 1
 278 114 l 1
 23 -5 l 1
 0 45 l 1
EndSplineSet
Colour: ffda6b
EndChar

StartChar: _.mark.kasreh
Encoding: 65647 -1 111
GlifName: _.mark.kasreh
Width: 0
VWidth: 2384
GlyphClass: 2
Flags: HMW
LayerCount: 2
Fore
SplineSet
0 -125 m 1
 256 -6 l 1
 278 -56 l 1
 23 -175 l 1
 0 -125 l 1
EndSplineSet
Colour: ffda6b
EndChar

StartChar: _.mark.zameh
Encoding: 65648 -1 112
GlifName: _.mark.zameh
Width: 0
VWidth: 2277
GlyphClass: 2
Flags: HMW
LayerCount: 2
Fore
SplineSet
203 280 m 1
 247 275 272 247 279 194 c 1
 279 139 250 99 193 74 c 2
 23 -5 l 1
 0 44 l 1
 177 127 l 2
 192 134 204 142 212 151 c 0
 220 160 225 172 225 188 c 0
 225 196 222 203 216 210 c 0
 210 217 203 221 195 221 c 0
 185 221 176 218 169 212 c 0
 162 206 158 197 158 188 c 0
 158 183 159 179 160 175 c 0
 161 171 161 168 162 166 c 0
 163 164 164 160 167 156 c 0
 170 152 171 150 172 149 c 0
 173 148 174 145 178 141 c 0
 182 137 184 135 185 134 c 2
 208 111 l 1
 167 82 l 1
 165 85 159 92 149 103 c 0
 139 114 133 123 130 128 c 0
 127 133 122 141 118 152 c 0
 114 163 112 174 112 186 c 0
 112 213 121 236 138 254 c 0
 155 272 176 280 203 280 c 1
EndSplineSet
Colour: ffda6b
EndChar

StartChar: _.mark.tanvin_fatheh
Encoding: 65649 -1 113
GlifName: _.mark.tanvin_fatheh
Width: 0
VWidth: 2280
GlyphClass: 2
Flags: HMW
LayerCount: 2
Fore
SplineSet
0 49 m 1
 256 168 l 1
 278 118 l 1
 23 -0 l 1
 0 49 l 1
0 170 m 1
 256 289 l 1
 278 240 l 1
 23 120 l 1
 0 170 l 1
EndSplineSet
Colour: ffda6b
EndChar

StartChar: _.mark.tanvin_kasreh
Encoding: 65650 -1 114
GlifName: _.mark.tanvin_kasreh
Width: 0
VWidth: 2413
GlyphClass: 2
Flags: HMW
LayerCount: 2
Fore
SplineSet
0 -120 m 1
 256 -1 l 1
 279 -51 l 1
 23 -170 l 1
 0 -120 l 1
0 -240 m 1
 256 -122 l 1
 279 -171 l 1
 23 -291 l 1
 0 -240 l 1
EndSplineSet
Colour: ffda6b
EndChar

StartChar: _.mark.tanvin_zameh
Encoding: 65651 -1 115
GlifName: _.mark.tanvin_zameh
Width: 0
VWidth: 2273
GlyphClass: 2
Flags: HMW
LayerCount: 2
Fore
SplineSet
220 288 m 0
 268 288 297 243 297 197 c 0
 297 174 291 152 276 132 c 0
 240 82 102 29 42 2 c 1
 18 52 l 1
 68 74 l 1
 70 84 72 94 72 104 c 0
 72 141 39 120 25 111 c 1
 0 151 l 1
 34 171 l 2
 43 176 52 178 61 178 c 0
 87 178 109 155 109 120 c 0
 109 112 108 102 106 92 c 1
 160 117 l 1
 155 125 l 1
 138 144 130 168 130 192 c 0
 130 241 164 288 220 288 c 0
175 194 m 0
 175 185 178 173 187 161 c 0
 198 147 190 153 204 139 c 1
 200 136 l 1
 226 149 244 165 244 194 c 0
 244 218 228 228 212 228 c 0
 194 228 175 216 175 194 c 0
EndSplineSet
Colour: ffda6b
EndChar

StartChar: _.mark.tashdid
Encoding: 65652 -1 116
GlifName: _.mark.tashdid
Width: 0
VWidth: 1833
GlyphClass: 2
Flags: HMW
LayerCount: 2
Fore
SplineSet
0 102 m 0
 0 110 0 119 1 129 c 0
 1 143 4 154 5 168 c 1
 51 164 l 1
 48 148 46 133 46 120 c 0
 46 74 64 52 84 52 c 0
 110 52 141 90 141 158 c 0
 141 161 140 163 140 166 c 1
 182 166 l 1
 182 159 182 153 182 147 c 0
 182 87 201 57 220 57 c 0
 240 57 261 89 261 155 c 0
 261 158 261 161 261 164 c 1
 307 168 l 1
 307 160 307 153 307 146 c 0
 307 46 262 1 218 1 c 0
 194 1 170 14 154 40 c 1
 138 17 105 -1 73 -1 c 0
 35 -1 0 26 0 102 c 0
EndSplineSet
Colour: ffda6b
EndChar

StartChar: _.mark.hamze
Encoding: 65653 -1 117
GlifName: _.mark.hamze
Width: 0
VWidth: 1841
GlyphClass: 2
Flags: HMW
LayerCount: 2
Fore
SplineSet
138 291 m 0
 119 291 103 286 90 276 c 0
 77 266 71 252 71 233 c 0
 71 213 78 196 93 184 c 0
 108 172 123 165 138 162 c 1
 256 218 l 1
 279 167 l 1
 23 49 l 1
 0 98 l 1
 78 134 l 1
 40 152 21 183 21 227 c 0
 21 258 31 286 52 310 c 0
 73 334 102 345 137 345 c 0
 160 345 186 339 213 326 c 1
 203 280 l 1
 176 287 154 291 138 291 c 0
EndSplineSet
Colour: ffda6b
EndChar

StartChar: _.mark.sakon
Encoding: 65654 -1 118
GlifName: _.mark.sakon
Width: 0
VWidth: 2099
GlyphClass: 2
Flags: HMW
LayerCount: 2
Fore
SplineSet
164 145 m 0
 164 121 156 100 141 84 c 0
 126 68 106 60 82 60 c 0
 45 60 20 77 7 112 c 0
 2 121 0 132 0 145 c 0
 0 180 17 206 50 223 c 0
 60 227 71 229 82 229 c 0
 106 229 126 221 141 205 c 0
 156 189 164 169 164 145 c 0
80 181 m 0
 70 181 61 177 54 170 c 0
 47 163 43 154 43 144 c 0
 43 133 47 125 54 118 c 0
 61 111 69 107 80 107 c 0
 91 107 100 111 107 118 c 0
 114 125 118 133 118 144 c 0
 118 154 114 163 107 170 c 0
 100 177 91 181 80 181 c 0
EndSplineSet
Colour: ffda6b
EndChar

StartChar: _.mark.alef
Encoding: 65655 -1 119
GlifName: _.mark.alef
Width: 0
VWidth: 2091
GlyphClass: 2
Flags: HMW
LayerCount: 2
Fore
SplineSet
0 245 m 1
 52 263 l 1
 67 222 77 186 82 152 c 0
 87 118 89 76 89 26 c 1
 42 26 l 1
 42 94 28 167 0 245 c 1
EndSplineSet
Colour: ffda6b
EndChar

StartChar: _.sing.momaiez
Encoding: 65656 -1 120
GlifName: _.sing.momaiez
Width: 402
VWidth: 1352
GlyphClass: 2
Flags: HMW
LayerCount: 2
Fore
SplineSet
50 -189 m 1
 265 410 l 1
 352 400 l 1
 141 -198 l 1
 134 -200 127 -201 120 -201 c 0
 104 -201 81 -197 50 -189 c 1
EndSplineSet
Colour: ffda6b
EndChar

StartChar: _.sing.hezare
Encoding: 65657 -1 121
GlifName: _.sing.hezare
Width: 222
VWidth: 1197
GlyphClass: 2
Flags: HMW
LayerCount: 2
Fore
SplineSet
50 900 m 1
 172 900 l 1
 130 700 l 1
 91 700 l 1
 50 900 l 1
EndSplineSet
Colour: ffda6b
EndChar

StartChar: _.sing.darsad
Encoding: 65658 -1 122
GlifName: _.sing.darsad
Width: 620
VWidth: 1197
GlyphClass: 2
Flags: HMW
LayerCount: 2
Fore
SplineSet
50 88 m 1
 471 736 l 1
 570 709 l 1
 147 63 l 1
 50 88 l 1
94 661 m 1
 111 695 131 729 155 763 c 1
 230 722 267 693 267 677 c 0
 267 662 250 629 216 580 c 1
 146 629 105 656 94 661 c 1
371 132 m 1
 388 164 409 198 434 234 c 1
 508 191 545 160 545 139 c 0
 545 132 528 103 493 52 c 1
 420 101 379 128 371 132 c 1
EndSplineSet
Colour: ffda6b
EndChar

StartChar: _.sing.mosavi
Encoding: 65659 -1 123
GlifName: _.sing.mosavi
Width: 488
VWidth: 1197
GlyphClass: 2
Flags: HMW
LayerCount: 2
Fore
SplineSet
50 124 m 1
 50 194 l 1
 438 194 l 1
 438 124 l 1
 50 124 l 1
50 300 m 1
 50 370 l 1
 438 370 l 1
 438 300 l 1
 50 300 l 1
EndSplineSet
Colour: ffda6b
EndChar

StartChar: _.beh_k.init
Encoding: 65661 -1 125
GlifName: _.beh_k.init
Width: 326
VWidth: 1197
GlyphClass: 2
UnlinkRmOvrlpSave: 1
Flags: HMW
LayerCount: 2
Fore
SplineSet
-50 49 m 0
 -50 76 -27 100 -1 100 c 0
 10 100 22 100 33 100 c 0
 102 100 150 118 186 136 c 1
 186 140 187 144 187 148 c 0
 187 199 161 285 147 329 c 0
 143 345 150 351 156 356 c 2
 202 396 l 2
 214 407 223 396 225 390 c 0
 248 320 262 253 262 195 c 0
 262 79 203 0 28 -0 c 2
 -1 -0 l 2
 -25 0 -50 24 -50 49 c 0
EndSplineSet
Colour: ffda6b
EndChar

StartChar: _.beh_k.medi
Encoding: 65662 -1 126
GlifName: _.beh_k.medi
Width: 418
VWidth: 1304
GlyphClass: 2
UnlinkRmOvrlpSave: 1
Flags: HMW
LayerCount: 2
Fore
SplineSet
-50 49 m 0
 -50 76 -27 100 -1 100 c 2
 24 100 l 2
 79 100 135 109 184 135 c 1
 184 290 l 2
 184 304 194 308 204 310 c 2
 244 320 l 2
 256 324 264 315 264 300 c 2
 264 160 l 2
 264 142 270 125 296 119 c 0
 328 109 369 100 418 100 c 1
 418 -0 l 1
 350 0 306 10 274 27 c 0
 249 38 230 53 216 70 c 1
 174 24 106 0 25 -0 c 2
 -1 -0 l 2
 -25 0 -50 24 -50 49 c 0
EndSplineSet
Colour: ffda6b
EndChar

StartChar: _.sing.3noqte
Encoding: 65663 -1 127
GlifName: _.sing.3noqte
Width: 767
VWidth: 1304
GlyphClass: 2
Flags: HMW
LayerCount: 2
Fore
SplineSet
50 136 m 1
 128 214 l 1
 205 136 l 1
 128 59 l 1
 50 136 l 1
300 136 m 1
 377 214 l 1
 454 136 l 1
 377 59 l 1
 300 136 l 1
562 136 m 1
 640 214 l 1
 717 136 l 1
 640 59 l 1
 562 136 l 1
EndSplineSet
Colour: ffda6b
EndChar

StartChar: s.khat_tire
Encoding: 8208 8208 138
GlifName: s.khat_tire
Width: 504
VWidth: 0
GlyphClass: 2
Flags: HMW
LayerCount: 2
Fore
SplineSet
55 229 m 1
 55 307 l 1
 451 307 l 1
 451 229 l 1
 55 229 l 1
EndSplineSet
Colour: d7d7d7
EndChar

StartChar: s.zwj
Encoding: 8205 8205 174
GlifName: s.zwj
Width: 0
VWidth: 1331
GlyphClass: 2
Flags: HMW
LayerCount: 2
Fore
SplineSet
25 -327 m 1
 -25 -327 l 1
 -25 579 l 1
 -111 491 l 1
 -141 521 l 1
 -30 631 l 1
 -141 740 l 1
 -111 772 l 1
 0 660 l 1
 111 772 l 1
 141 740 l 1
 30 631 l 1
 141 521 l 1
 111 491 l 1
 25 579 l 1
 25 -327 l 1
EndSplineSet
Colour: d7d7d7
EndChar

StartChar: s.tagsim
Encoding: 247 247 182
GlifName: s.tagsim
Width: 564
VWidth: 1278
GlyphClass: 2
Flags: HMW
LayerCount: 2
Fore
SplineSet
59 352 m 1
 59 429 l 1
 506 429 l 1
 506 352 l 1
 59 352 l 1
234 204 m 1
 234 299 l 1
 330 299 l 1
 330 204 l 1
 234 204 l 1
234 482 m 1
 234 577 l 1
 330 577 l 1
 330 482 l 1
 234 482 l 1
EndSplineSet
Colour: d7d7d7
EndChar

StartChar: s.zwnj
Encoding: 8204 8204 215
GlifName: s.zwnj
Width: 0
VWidth: 1331
GlyphClass: 2
Flags: HMW
LayerCount: 2
Fore
SplineSet
-25 -308 m 1
 -25 710 l 1
 25 710 l 1
 25 -308 l 1
 -25 -308 l 1
EndSplineSet
Colour: d7d7d7
EndChar

StartChar: s.dotted_circle
Encoding: 9676 9676 220
GlifName: s.dotted_circle
Width: 576
VWidth: 1890
GlyphClass: 2
Flags: HMW
LayerCount: 2
Fore
SplineSet
60 181 m 0
 60 196 67 203 82 203 c 0
 97 203 104 196 104 182 c 2
 104 180 l 2
 104 166 97 159 82 159 c 0
 67 159 60 166 60 181 c 0
76 103 m 0
 76 118 83 126 98 126 c 0
 113 126 120 118 120 103 c 0
 120 88 113 80 98 80 c 0
 83 80 76 88 76 103 c 0
76 259 m 0
 76 274 83 282 98 282 c 0
 113 282 120 274 120 259 c 0
 120 244 113 236 99 236 c 0
 84 236 76 244 76 259 c 0
120 34 m 0
 120 49 127 56 142 57 c 0
 157 56 164 49 165 34 c 0
 164 19 157 12 142 12 c 0
 127 12 120 19 120 34 c 0
120 326 m 0
 120 341 127 348 142 349 c 0
 157 348 164 341 165 326 c 0
 164 311 157 304 142 304 c 0
 127 304 120 311 120 326 c 0
187 -8 m 0
 187 7 195 14 210 14 c 0
 225 14 233 7 233 -8 c 0
 233 -23 225 -30 210 -30 c 0
 195 -30 187 -23 187 -8 c 0
187 372 m 0
 187 387 195 394 210 394 c 0
 225 394 233 387 233 372 c 0
 233 357 225 350 210 350 c 0
 195 350 187 357 187 372 c 0
310 -26 m 0
 310 -41 303 -48 288 -48 c 0
 273 -48 266 -41 265 -26 c 0
 266 -11 273 -4 288 -3 c 0
 303 -4 310 -11 310 -26 c 0
288 410 m 0
 303 410 310 403 310 388 c 0
 310 373 303 366 288 365 c 0
 273 366 266 373 265 388 c 0
 266 403 273 410 288 410 c 0
344 -8 m 0
 344 7 352 14 367 14 c 0
 382 14 390 7 390 -8 c 0
 390 -22 382 -30 367 -31 c 0
 352 -30 344 -22 344 -8 c 0
344 372 m 0
 344 387 352 394 367 394 c 0
 382 394 390 387 390 372 c 0
 390 358 382 350 367 349 c 0
 352 350 344 358 344 372 c 0
412 34 m 0
 412 49 419 56 434 57 c 0
 449 56 456 49 456 34 c 0
 456 19 449 12 434 12 c 0
 419 12 412 19 412 34 c 0
412 326 m 0
 412 341 419 348 434 349 c 0
 449 348 456 341 456 326 c 0
 456 311 449 304 434 304 c 0
 419 304 412 311 412 326 c 0
456 103 m 0
 456 118 463 126 478 126 c 0
 492 126 500 118 501 103 c 0
 500 88 492 80 478 80 c 0
 463 80 456 88 456 103 c 0
456 259 m 0
 456 274 463 282 478 282 c 0
 492 282 500 274 501 259 c 0
 500 244 492 236 478 236 c 0
 463 236 456 244 456 259 c 0
472 181 m 0
 472 196 479 203 494 203 c 0
 509 203 516 196 517 182 c 2
 517 180 l 2
 516 166 509 159 494 159 c 0
 479 159 472 166 472 181 c 0
EndSplineSet
Colour: d7d7d7
EndChar

StartChar: s.figure_dash
Encoding: 8210 8210 224
GlifName: s.figure_dash
Width: 600
VWidth: 0
GlyphClass: 2
Flags: HMW
LayerCount: 2
Fore
SplineSet
55 229 m 1
 55 307 l 1
 547 307 l 1
 547 229 l 1
 55 229 l 1
EndSplineSet
Colour: d7d7d7
EndChar

StartChar: s.em_dash
Encoding: 8212 8212 263
GlifName: s.em_dash
Width: 1200
VWidth: 1175
GlyphClass: 2
Flags: HMW
LayerCount: 2
Fore
SplineSet
55 229 m 1
 55 307 l 1
 1147 307 l 1
 1147 229 l 1
 55 229 l 1
EndSplineSet
Colour: d7d7d7
EndChar

StartChar: s.bullet
Encoding: 8226 8226 278
GlifName: s.bullet
Width: 602
VWidth: 1331
GlyphClass: 2
Flags: HMW
LayerCount: 2
Fore
SplineSet
532 432 m 0
 532 369 509 315 464 270 c 0
 419 225 365 202 302 202 c 0
 245 202 194 223 147 266 c 0
 100 309 77 357 77 410 c 0
 77 483 99 542 142 585 c 0
 185 628 236 650 295 650 c 0
 368 650 426 630 468 591 c 0
 510 552 532 499 532 432 c 0
EndSplineSet
Colour: d7d7d7
EndChar

StartChar: s.en_dash
Encoding: 8211 8211 310
GlifName: s.en_dash
Width: 600
VWidth: 1175
GlyphClass: 2
Flags: HMW
LayerCount: 2
Fore
SplineSet
55 229 m 1
 55 307 l 1
 547 307 l 1
 547 229 l 1
 55 229 l 1
EndSplineSet
Colour: d7d7d7
EndChar

StartChar: s.horizontal_bar
Encoding: 8213 8213 316
GlifName: s.horizontal_bar
Width: 2400
VWidth: 1175
GlyphClass: 2
Flags: HMW
LayerCount: 2
Fore
SplineSet
55 229 m 1
 55 307 l 1
 2347 307 l 1
 2347 229 l 1
 55 229 l 1
EndSplineSet
Colour: d7d7d7
EndChar

StartChar: s.lrm
Encoding: 8206 8206 317
GlifName: s.lrm
Width: 0
VWidth: 1331
GlyphClass: 2
Flags: HMW
LayerCount: 2
Fore
SplineSet
-25 -308 m 1
 -25 676 l 1
 196 676 l 1
 106 759 l 1
 138 790 l 1
 280 651 l 1
 138 510 l 1
 106 544 l 1
 196 628 l 1
 22 628 l 1
 22 -308 l 1
 -25 -308 l 1
EndSplineSet
Colour: d7d7d7
EndChar

StartChar: s.rlm
Encoding: 8207 8207 346
GlifName: s.rlm
Width: 0
VWidth: 1331
GlyphClass: 2
Flags: HMW
LayerCount: 2
Fore
SplineSet
22 676 m 1
 22 -308 l 1
 -25 -308 l 1
 -25 628 l 1
 -196 628 l 1
 -108 544 l 1
 -138 510 l 1
 -280 651 l 1
 -138 790 l 1
 -108 759 l 1
 -196 676 l 1
 22 676 l 1
EndSplineSet
Colour: d7d7d7
EndChar

StartChar: _.mark.he_yeh
Encoding: 65664 -1 400
GlifName: _.mark.he_yeh
Width: 209
VWidth: 1304
GlyphClass: 1
UnlinkRmOvrlpSave: 1
Flags: HMW
LayerCount: 2
Fore
SplineSet
192 89 m 2
 192 90 l 2
 192 95 184 100 167 104 c 0
 153 107 144 109 141 109 c 0
 122 114 113 124 113 141 c 0
 113 176 135 207 178 234 c 0
 191 241 202 245 210 245 c 1
 210 200 l 1
 186 200 165 187 147 162 c 1
 145 156 l 2
 145 152 157 146 180 138 c 0
 205 130 218 124 221 120 c 0
 224 115 226 106 226 92 c 0
 226 77 219 62 206 49 c 0
 169 12 101 -6 0 -6 c 1
 17 42 l 1
 96 42 150 53 178 75 c 0
 187 82 192 87 192 89 c 2
EndSplineSet
EndChar

StartChar: uni0000
Encoding: 0 0 401
GlifName: uni0000
Width: 497
VWidth: 0
GlyphClass: 2
Flags: HMW
LayerCount: 2
Fore
SplineSet
59 -251 m 1
 59 709 l 1
 438 709 l 1
 438 -251 l 1
 59 -251 l 1
105 -181 m 1
 387 -181 l 1
 387 648 l 1
 105 648 l 1
 105 -181 l 1
EndSplineSet
EndChar

StartChar: _.ghaf.medi
Encoding: 65665 -1 402
GlifName: _.ghaf.medi
Width: 536
VWidth: 0
GlyphClass: 2
Flags: HMW
LayerCount: 2
Fore
SplineSet
-50 50 m 0
 -50 75 -26 100 -1 100 c 2
 89 100 l 2
 149 100 253 124 260 160 c 1
 254 265 162 394 24 485 c 0
 13 493 6 505 6 516 c 0
 6 519 7 522 8 525 c 0
 15 547 22 570 28 593 c 1
 34 609 47 626 63 633 c 2
 433 800 l 2
 435 801 436 801 438 801 c 0
 445 801 449 793 449 782 c 0
 449 753 429 702 407 692 c 2
 98 553 l 1
 183 489 266 396 303 294 c 0
 344 193 371 100 536 100 c 1
 536 -0 l 1
 406 0 350 45 306 116 c 1
 273 34 185 0 80 -0 c 2
 -1 -0 l 1
 -26 1 -50 24 -50 50 c 0
58 707 m 0
 58 723 70 752 82 758 c 2
 361 884 l 2
 362 884 363 884 364 884 c 0
 368 884 369 879 369 873 c 0
 369 858 360 832 349 826 c 2
 67 698 l 2
 66 697 64 697 63 697 c 0
 59 697 58 701 58 707 c 0
EndSplineSet
Colour: ffda6b
EndChar

StartChar: _.ghaf.init
Encoding: 65666 -1 403
GlifName: _.ghaf.init
Width: 513
VWidth: 0
GlyphClass: 2
Flags: HMW
LayerCount: 2
Fore
SplineSet
-50 50 m 0
 -50 75 -26 100 -1 100 c 2
 89 100 l 2
 149 100 253 124 260 160 c 1
 254 265 162 394 24 485 c 0
 13 493 6 505 6 516 c 0
 6 519 7 522 8 525 c 0
 15 547 22 570 28 593 c 1
 34 609 47 626 63 633 c 2
 433 800 l 2
 435 801 436 801 438 801 c 0
 445 801 449 793 449 782 c 0
 449 753 429 702 407 692 c 2
 98 553 l 1
 235 448 321 311 321 198 c 0
 320 54 213 0 80 -0 c 2
 -1 -0 l 1
 -26 1 -50 24 -50 50 c 0
58 707 m 0
 58 723 70 752 82 758 c 2
 361 884 l 2
 362 884 363 884 364 884 c 0
 368 884 369 879 369 873 c 0
 369 858 360 832 349 826 c 2
 67 698 l 2
 66 697 64 697 63 697 c 0
 59 697 58 701 58 707 c 0
EndSplineSet
Colour: ffda6b
EndChar

StartChar: _.la.isol.fa
Encoding: 65667 -1 404
Width: 562
VWidth: 0
Flags: HMW
LayerCount: 2
Fore
SplineSet
64 603 m 0
 64 621 77 640 114 682 c 0
 121 684 126 683 128 676 c 2
 275 268 l 2
 277 261 277 254 277 246 c 0
 277 209 262 165 249 165 c 0
 247 165 245 165 243 168 c 2
 75 562 l 2
 68 579 64 592 64 603 c 0
114 50 m 0
 114 75 138 100 163 100 c 2
 167 100 l 2
 296 100 413 176 434 218 c 1
 409 700 l 2
 409 707 409 713 409 718 c 0
 409 752 416 762 485 800 c 0
 492 800 498 798 498 789 c 2
 498 283 l 2
 498 194 468 112 392 60 c 0
 328 16 240 0 164 -0 c 1
 139 1 114 24 114 50 c 0
EndSplineSet
Colour: ffda6b
EndChar

StartChar: _.la.fina.fa
Encoding: 65668 -1 405
Width: 674
VWidth: 0
Flags: HMW
LayerCount: 2
Fore
SplineSet
64 603 m 0
 64 621 77 640 114 682 c 0
 121 684 126 683 128 676 c 2
 275 268 l 2
 277 261 277 254 277 246 c 0
 277 209 262 165 249 165 c 0
 247 165 245 165 243 168 c 2
 75 562 l 2
 68 579 64 592 64 603 c 0
114 50 m 0
 114 75 138 100 163 100 c 2
 167 100 l 2
 296 100 413 176 434 218 c 1
 409 700 l 2
 409 707 409 713 409 718 c 0
 409 752 416 762 485 800 c 0
 492 800 498 798 498 789 c 2
 498 279 l 1
 504 183 529 100 674 100 c 1
 674 -0 l 1
 536 0 483 56 460 130 c 1
 443 104 420 80 392 60 c 0
 328 16 240 0 164 -0 c 1
 139 1 114 24 114 50 c 0
EndSplineSet
Colour: ffda6b
EndChar

StartChar: _.sing.alef_maad
Encoding: 65671 -1 408
Width: 505
VWidth: 1352
Flags: HMW
LayerCount: 2
Fore
SplineSet
50 31 m 1
 67 75 88 105 113 122 c 0
 138 139 166 147 199 147 c 0
 213 147 234 146 262 142 c 0
 290 138 312 136 325 136 c 0
 381 136 422 163 448 216 c 1
 455 166 l 1
 444 119 426 87 401 70 c 0
 376 53 346 44 309 44 c 0
 294 44 270 46 239 50 c 0
 208 54 185 55 171 55 c 0
 122 55 90 37 77 0 c 1
 50 31 l 1
EndSplineSet
Colour: ffda6b
EndChar

StartChar: _.sing.star
Encoding: 65672 -1 409
Width: 503
VWidth: 1197
Flags: HMW
LayerCount: 2
Fore
SplineSet
50 543 m 1
 72 609 l 1
 123 593 l 2
 136 589 154 582 177 572 c 0
 200 562 215 557 221 555 c 1
 220 561 220 570 219 582 c 0
 218 594 218 603 217 609 c 0
 217 615 216 624 216 635 c 0
 216 646 216 655 216 660 c 2
 216 714 l 1
 286 714 l 1
 286 660 l 2
 286 623 284 588 280 555 c 1
 290 558 306 565 329 574 c 0
 352 583 368 590 379 593 c 2
 430 609 l 1
 453 543 l 1
 401 525 l 2
 390 522 373 518 350 512 c 0
 327 506 310 501 299 498 c 1
 305 491 327 464 365 417 c 1
 397 373 l 1
 341 332 l 1
 309 375 l 2
 289 402 270 432 252 463 c 1
 216 408 197 379 194 375 c 2
 162 332 l 1
 105 373 l 1
 136 417 l 2
 145 426 167 453 203 498 c 1
 192 501 175 506 152 512 c 0
 129 518 113 522 102 525 c 2
 50 543 l 1
EndSplineSet
Colour: ffda6b
EndChar

